<svg width="263" height="242" viewBox="0 0 263 242" fill="none" xmlns="http://www.w3.org/2000/svg">
<path d="M131.19 221.903C125.813 221.903 121.453 226.372 121.453 231.88C121.453 237.401 125.813 241.87 131.19 241.87C136.569 241.87 140.929 237.401 140.929 231.88C140.929 226.372 136.569 221.903 131.19 221.903ZM179.929 1.54208C176.042 4.30275 174.707 10.0154 179.062 14.7578C186.183 22.5068 206.531 40.9841 206.531 40.9841C206.531 40.9841 196.859 14.9491 192.298 5.38243C189.509 -0.466904 183.817 -1.21858 179.929 1.54208ZM217.142 22.6434C211.985 23.6547 208.122 28.8481 210.469 35.6678C214.307 46.8198 226.89 74.9594 226.89 74.9594C226.89 74.9594 228.471 44.0591 228.029 32.2374C227.759 25.0078 222.299 21.6321 217.142 22.6434ZM243.478 59.8851C238.33 58.8327 232.842 62.1537 232.511 69.3834C231.971 81.2051 233.294 112.119 233.294 112.119C233.294 112.119 246.111 84.1024 250.042 72.9778C252.446 66.1718 248.627 60.9374 243.478 59.8851ZM257.982 101.459C253.102 98.1654 246.082 99.2451 242.789 106.543C237.401 118.501 226.126 150.973 226.126 150.973C226.126 150.973 250.801 127.562 259.402 117.777C264.662 111.805 262.861 104.766 257.982 101.459ZM253.206 150.413C249.577 145.151 242.138 143.416 236.054 149.429C226.103 159.242 202.445 187.231 202.445 187.231C202.445 187.231 236.07 173.674 248.41 167.319C255.957 163.437 256.834 155.675 253.206 150.413ZM205.911 230.937C207.337 223.871 203.042 216.314 193.605 215.794C178.171 214.947 137.757 216.478 137.757 216.478C137.757 216.478 174.255 234.326 188.751 239.82C197.614 243.182 204.486 237.989 205.911 230.937ZM234.783 195.704C233.435 188.939 226.866 183.937 218.366 187.135C204.465 192.37 169.451 209.371 169.451 209.371C169.451 209.371 208.166 210.943 222.954 210.177C231.997 209.699 236.131 202.469 234.783 195.704ZM70.29 5.38243C65.7287 14.9491 56.0567 40.9841 56.0567 40.9841C56.0567 40.9841 76.4047 22.5068 83.526 14.7578C87.8807 10.0154 86.546 4.30275 82.6594 1.54208C78.7714 -1.21858 73.0794 -0.466904 70.29 5.38243ZM34.5594 32.2374C34.1167 44.0591 35.6981 74.9594 35.6981 74.9594C35.6981 74.9594 48.2807 46.8198 52.1194 35.6678C54.466 28.8481 50.6034 23.6547 45.446 22.6434C40.2887 21.6321 34.8287 25.0078 34.5594 32.2374ZM12.5461 72.9778C16.4767 84.1024 29.294 112.119 29.294 112.119C29.294 112.119 30.6167 81.2051 30.0767 69.3834C29.7461 62.1537 24.2581 58.8327 19.1101 59.8851C13.9607 60.9374 10.1421 66.1718 12.5461 72.9778ZM3.18604 117.777C11.7874 127.562 36.4621 150.973 36.4621 150.973C36.4621 150.973 25.1874 118.501 19.7994 106.543C16.5061 99.2451 9.48605 98.1654 4.60605 101.459C-0.27262 104.766 -2.07396 111.805 3.18604 117.777ZM14.1781 167.319C26.5181 173.674 60.1434 187.231 60.1434 187.231C60.1434 187.231 36.4847 159.242 26.5341 149.429C20.4501 143.416 13.0114 145.151 9.38206 150.413C5.75406 155.675 6.63139 163.437 14.1781 167.319ZM73.8367 239.82C88.3327 234.326 124.831 216.478 124.831 216.478C124.831 216.478 84.4167 214.947 68.9834 215.794C59.546 216.314 55.2514 223.871 56.6767 230.937C58.1021 237.989 64.9741 243.182 73.8367 239.82ZM27.8047 195.704C29.1527 188.939 35.722 183.937 44.222 187.135C58.1234 192.37 93.1367 209.371 93.1367 209.371C93.1367 209.371 54.4221 210.943 39.6341 210.177C30.5914 209.699 26.4567 202.469 27.8047 195.704Z" fill="#00ADEF"/>
<path d="M141.286 20.5799L136.557 10.7535C135.567 8.70348 133.527 7.40515 131.294 7.40515C129.061 7.40515 127.021 8.70348 126.031 10.7535L121.302 20.5799C76.3126 25.6775 41.314 64.7505 41.314 112.228C41.314 163.164 81.5993 204.451 131.294 204.451C180.989 204.451 221.274 163.164 221.274 112.228C221.274 64.7505 186.275 25.6775 141.286 20.5799Z" fill="white"/>
<mask id="mask0_2_104" style="mask-type:luminance" maskUnits="userSpaceOnUse" x="41" y="7" width="181" height="181">
<path d="M142.894 42.2825L145.633 58.6551L131.294 50.9198L116.955 58.6551L119.694 42.2825L108.093 30.6932L124.125 28.3015L131.294 13.4184L138.463 28.3015L154.495 30.6932L142.894 42.2825ZM179.117 79.8932C181.213 80.3442 181.213 83.4055 179.117 83.8428L173.079 85.1275V97.6051C174.803 100.297 175.986 103.619 176.382 107.295C174.914 107.965 173.339 108.333 171.701 108.333C170.061 108.333 168.487 107.965 167.018 107.295C167.415 103.619 168.601 100.284 170.327 97.5915V85.7015L158.725 88.1478V87.7925C158.725 82.2985 144.506 79.7838 131.295 79.7838C118.083 79.7838 103.863 82.2985 103.863 87.7925V88.1478L83.4713 83.8428C81.3753 83.4055 81.3753 80.3442 83.4713 79.8932L125.442 71.0645C129.303 70.2445 133.285 70.2445 137.146 71.0645L179.117 79.8932ZM106.615 87.7925C106.615 86.0295 115.326 82.6128 131.295 82.6128C147.262 82.6128 155.973 86.0295 155.973 87.7925V105.245C151.35 102.84 142.245 101.377 131.294 101.377C120.345 101.377 111.239 102.84 106.617 105.245L106.615 87.7925ZM157.987 117.531C157.702 121.891 157.666 129.407 152.253 131.43C152.013 133.822 149.811 143.375 144.193 146.149C144.27 148.185 145.069 151.014 146.185 155.647L131.294 163.219L116.403 155.647C117.519 151.014 118.318 148.185 118.395 146.149C112.777 143.375 110.575 133.822 110.335 131.43C104.922 129.407 104.886 121.891 104.601 117.531C104.493 115.877 104.987 114.497 105.962 114.005C106.675 113.65 108.005 113.527 108.903 114.552C108.654 113.267 108.487 110.67 108.465 107.472C112.065 105.86 119.537 104.192 131.295 104.192C143.051 104.192 150.522 105.86 154.122 107.472C154.101 110.67 153.934 113.267 153.685 114.552C154.583 113.527 155.913 113.65 156.626 114.005C157.601 114.497 158.095 115.877 157.987 117.531ZM141.286 20.5798L136.557 10.7534C135.567 8.70345 133.527 7.40511 131.294 7.40511C129.061 7.40511 127.021 8.70345 126.031 10.7534L121.302 20.5798C76.3126 25.6775 41.314 64.7504 41.314 112.228C41.314 143.06 56.0833 170.325 78.7486 187.081C79.1593 182.885 80.3487 178.853 82.2087 175.204C64.2073 160.417 52.65 137.717 52.65 112.283C52.65 77.2008 74.6447 47.2844 105.238 36.2418L108.69 39.6858C78.714 49.5258 56.946 78.3352 56.946 112.283C56.946 136.132 67.69 157.438 84.4673 171.419C87.3673 167.237 91.2366 163.752 95.8873 161.374C100.067 159.242 104.551 157.479 109.275 156.139L131.294 178.717L153.313 156.139C158.037 157.479 162.521 159.242 166.701 161.374C171.351 163.752 175.221 167.237 178.121 171.419C194.898 157.438 205.642 136.132 205.642 112.283C205.642 78.3352 183.873 49.5258 153.898 39.6858L157.35 36.2418C187.943 47.2844 209.938 77.2008 209.938 112.283C209.938 137.717 198.379 160.417 180.379 175.204C182.239 178.853 183.429 182.885 183.838 187.081C206.505 170.325 221.274 143.06 221.274 112.228C221.274 64.7504 186.275 25.6775 141.286 20.5798Z" fill="white"/>
</mask>
<g mask="url(#mask0_2_104)">
<path d="M142.894 42.2825L145.633 58.6551L131.294 50.9198L116.955 58.6551L119.694 42.2825L108.093 30.6932L124.125 28.3015L131.294 13.4184L138.463 28.3015L154.495 30.6932L142.894 42.2825ZM179.117 79.8932C181.213 80.3442 181.213 83.4055 179.117 83.8428L173.079 85.1275V97.6051C174.803 100.297 175.986 103.619 176.382 107.295C174.914 107.965 173.339 108.333 171.701 108.333C170.061 108.333 168.487 107.965 167.018 107.295C167.415 103.619 168.601 100.284 170.327 97.5915V85.7015L158.725 88.1478V87.7925C158.725 82.2985 144.506 79.7838 131.295 79.7838C118.083 79.7838 103.863 82.2985 103.863 87.7925V88.1478L83.4713 83.8428C81.3753 83.4055 81.3753 80.3442 83.4713 79.8932L125.442 71.0645C129.303 70.2445 133.285 70.2445 137.146 71.0645L179.117 79.8932ZM106.615 87.7925C106.615 86.0295 115.326 82.6128 131.295 82.6128C147.262 82.6128 155.973 86.0295 155.973 87.7925V105.245C151.35 102.84 142.245 101.377 131.294 101.377C120.345 101.377 111.239 102.84 106.617 105.245L106.615 87.7925ZM157.987 117.531C157.702 121.891 157.666 129.407 152.253 131.43C152.013 133.822 149.811 143.375 144.193 146.149C144.27 148.185 145.069 151.014 146.185 155.647L131.294 163.219L116.403 155.647C117.519 151.014 118.318 148.185 118.395 146.149C112.777 143.375 110.575 133.822 110.335 131.43C104.922 129.407 104.886 121.891 104.601 117.531C104.493 115.877 104.987 114.497 105.962 114.005C106.675 113.65 108.005 113.527 108.903 114.552C108.654 113.267 108.487 110.67 108.465 107.472C112.065 105.86 119.537 104.192 131.295 104.192C143.051 104.192 150.522 105.86 154.122 107.472C154.101 110.67 153.934 113.267 153.685 114.552C154.583 113.527 155.913 113.65 156.626 114.005C157.601 114.497 158.095 115.877 157.987 117.531ZM141.286 20.5798L136.557 10.7534C135.567 8.70345 133.527 7.40511 131.294 7.40511C129.061 7.40511 127.021 8.70345 126.031 10.7534L121.302 20.5798C76.3126 25.6775 41.314 64.7504 41.314 112.228C41.314 143.06 56.0833 170.325 78.7486 187.081C79.1593 182.885 80.3487 178.853 82.2087 175.204C64.2073 160.417 52.65 137.717 52.65 112.283C52.65 77.2008 74.6447 47.2844 105.238 36.2418L108.69 39.6858C78.714 49.5258 56.946 78.3352 56.946 112.283C56.946 136.132 67.69 157.438 84.4673 171.419C87.3673 167.237 91.2366 163.752 95.8873 161.374C100.067 159.242 104.551 157.479 109.275 156.139L131.294 178.717L153.313 156.139C158.037 157.479 162.521 159.242 166.701 161.374C171.351 163.752 175.221 167.237 178.121 171.419C194.898 157.438 205.642 136.132 205.642 112.283C205.642 78.3352 183.873 49.5258 153.898 39.6858L157.35 36.2418C187.943 47.2844 209.938 77.2008 209.938 112.283C209.938 137.717 198.379 160.417 180.379 175.204C182.239 178.853 183.429 182.885 183.838 187.081C206.505 170.325 221.274 143.06 221.274 112.228C221.274 64.7504 186.275 25.6775 141.286 20.5798Z" fill="url(#paint0_linear_2_104)"/>
</g>
<defs>
<linearGradient id="paint0_linear_2_104" x1="67.6793" y1="177.418" x2="198.049" y2="50.2284" gradientUnits="userSpaceOnUse">
<stop stop-color="#293E9B"/>
<stop offset="0.1" stop-color="#293E9B"/>
<stop offset="0.9" stop-color="#0994DC"/>
<stop offset="1" stop-color="#0994DC"/>
</linearGradient>
</defs>
</svg>
