<svg width="280" height="212" viewBox="0 0 280 212" fill="none" xmlns="http://www.w3.org/2000/svg">
<path d="M13.6273 36.321L13.5803 24.074H0.852295L0.900291 36.321H13.6273Z" fill="url(#paint0_linear_6_2011)"/>
<path d="M66.4872 38.644H22.0602L22.0432 36.254H66.4722L66.4872 38.644Z" fill="white"/>
<path d="M115.585 31.4521H21.6451L21.6311 29.061H115.57L115.585 31.4521Z" fill="url(#paint1_linear_6_2011)"/>
<path d="M96.2862 24.259H20.9142L20.8992 21.868H96.2702L96.2862 24.259Z" fill="url(#paint2_linear_6_2011)"/>
<path d="M84.5392 38.644H71.0572L71.0422 36.254H84.5242L84.5392 38.644Z" fill="white"/>
<path d="M66.7482 60.9261H50.1102L50.0442 59.1631H66.6832L66.7482 60.9261Z" fill="white"/>
<path d="M84.9543 55.6241H49.7733L49.7073 53.8611H84.8883L84.9543 55.6241Z" fill="url(#paint3_linear_6_2011)"/>
<path d="M73.5103 60.9261H68.4603L68.3943 59.1631H73.4443L73.5103 60.9261Z" fill="white"/>
<path d="M181.643 60.9261H165.004L164.938 59.1631H181.575L181.643 60.9261Z" fill="white"/>
<path d="M199.849 55.6241H164.666L164.6 53.8611H199.782L199.849 55.6241Z" fill="url(#paint4_linear_6_2011)"/>
<path d="M188.403 60.9261H183.355L183.287 59.1631H188.337L188.403 60.9261Z" fill="white"/>
<path d="M168.102 38.644H123.673L123.658 36.254H168.085L168.102 38.644Z" fill="white"/>
<path d="M217.2 31.4521H123.261L123.244 29.061H217.184L217.2 31.4521Z" fill="url(#paint5_linear_6_2011)"/>
<path d="M197.9 24.259H122.528L122.513 21.868H197.886L197.9 24.259Z" fill="url(#paint6_linear_6_2011)"/>
<path d="M186.153 38.644H172.672L172.656 36.254H186.139L186.153 38.644Z" fill="white"/>
<path d="M19.4894 59.9431H15.8954L15.4254 61.634H12.1934L15.8654 51.3881H19.3184L23.3474 61.634H20.0314L19.4894 59.9431ZM18.7934 57.7281L17.5994 54.045L16.5434 57.7281H18.7934Z" fill="#0E036C"/>
<path d="M127.194 51.389H133.122C134.108 51.389 134.871 51.6341 135.409 52.1241C135.946 52.6121 136.222 53.2191 136.234 53.9401C136.245 54.5451 136.065 55.0651 135.695 55.4991C135.449 55.7881 135.085 56.0161 134.602 56.1851C135.34 56.3611 135.889 56.665 136.243 57.096C136.597 57.528 136.78 58.069 136.792 58.721C136.802 59.252 136.687 59.7301 136.447 60.1541C136.208 60.5791 135.876 60.914 135.451 61.161C135.188 61.314 134.79 61.4261 134.256 61.4961C133.544 61.5901 133.072 61.636 132.839 61.636H127.374L127.194 51.389ZM130.458 55.4081H131.834C132.328 55.4081 132.671 55.323 132.86 55.153C133.051 54.983 133.144 54.737 133.138 54.416C133.132 54.117 133.031 53.884 132.835 53.717C132.64 53.549 132.301 53.466 131.821 53.466H130.423L130.458 55.4081ZM130.529 59.433H132.144C132.688 59.433 133.071 59.337 133.291 59.144C133.511 58.951 133.617 58.6901 133.613 58.3651C133.607 58.0621 133.492 57.819 133.268 57.635C133.042 57.451 132.654 57.359 132.098 57.359H130.492L130.529 59.433Z" fill="#0E036C"/>
<path d="M35.9502 66.596C33.2462 66.596 30.7342 65.539 28.8732 63.622C27.0002 61.692 26.0202 59.132 26.1172 56.412C26.3082 50.907 30.9422 46.4301 36.4502 46.4301C39.1542 46.4301 41.6662 47.486 43.5272 49.403C45.4002 51.333 46.3812 53.893 46.2852 56.614C46.0932 62.117 41.4572 66.596 35.9502 66.596ZM36.5862 48.364C32.0392 48.364 28.2122 52.065 28.0532 56.613C27.9782 58.781 28.7462 60.809 30.2212 62.328C31.6812 63.832 33.6672 64.66 35.8162 64.66C40.3622 64.66 44.1902 60.961 44.3472 56.412C44.4232 54.244 43.6552 52.214 42.1812 50.696C40.7212 49.193 38.7342 48.364 36.5862 48.364Z" fill="url(#paint7_linear_6_2011)"/>
<path d="M149.141 66.3071C146.438 66.3071 143.926 65.2521 142.065 63.3341C140.192 61.4041 139.212 58.8441 139.307 56.1231C139.498 50.6191 144.134 46.1421 149.642 46.1421C152.344 46.1421 154.857 47.1971 156.718 49.1141C158.59 51.0431 159.571 53.6061 159.475 56.3261C159.284 61.8291 154.649 66.3071 149.141 66.3071ZM149.776 48.0761C145.231 48.0761 141.403 51.7751 141.245 56.3251C141.17 58.4931 141.938 60.5211 143.413 62.0401C144.872 63.5441 146.858 64.3721 149.008 64.3721C153.552 64.3721 157.381 60.6731 157.539 56.1231C157.614 53.9551 156.845 51.9251 155.371 50.4081C153.911 48.9041 151.925 48.0761 149.776 48.0761Z" fill="url(#paint8_linear_6_2011)"/>
<path d="M35.1433 60.737L32.3723 57.058L33.8963 55.968L35.1163 57.588L39.2843 52.431L40.8283 53.707L35.1433 60.737Z" fill="#0E036C"/>
<path d="M13.2012 93.209L13.1552 80.963H0.427246L0.474243 93.209H13.2012Z" fill="url(#paint9_linear_6_2011)"/>
<path d="M66.0622 95.5331H21.6332L21.6182 93.1421H66.0452L66.0622 95.5331Z" fill="white"/>
<path d="M115.16 88.3401H21.2211L21.2041 85.9491H115.145L115.16 88.3401Z" fill="url(#paint10_linear_6_2011)"/>
<path d="M95.8601 81.1461H20.4881L20.4731 78.7561H95.8462L95.8601 81.1461Z" fill="url(#paint11_linear_6_2011)"/>
<path d="M84.1142 95.5331H70.6322L70.6162 93.1421H84.0982L84.1142 95.5331Z" fill="white"/>
<path d="M66.3232 117.813H49.6842L49.6172 116.051H66.2562L66.3232 117.813Z" fill="white"/>
<path d="M84.5302 112.512H49.3472L49.2812 110.749H84.4622L84.5302 112.512Z" fill="url(#paint12_linear_6_2011)"/>
<path d="M73.0833 117.813H68.0353L67.9683 116.051H73.0183L73.0833 117.813Z" fill="white"/>
<path d="M181.217 117.813H164.578L164.512 116.051H181.151L181.217 117.813Z" fill="white"/>
<path d="M199.423 112.512H164.241L164.176 110.749H199.357L199.423 112.512Z" fill="url(#paint13_linear_6_2011)"/>
<path d="M187.978 117.813H182.928L182.863 116.051H187.91L187.978 117.813Z" fill="white"/>
<path d="M167.675 95.5331H123.248L123.233 93.1421H167.66L167.675 95.5331Z" fill="white"/>
<path d="M216.774 88.3401H122.834L122.819 85.9491H216.758L216.774 88.3401Z" fill="url(#paint14_linear_6_2011)"/>
<path d="M197.476 81.1461H122.103L122.086 78.7561H197.459L197.476 81.1461Z" fill="url(#paint15_linear_6_2011)"/>
<path d="M185.728 95.5331H172.245L172.23 93.1421H185.712L185.728 95.5331Z" fill="white"/>
<path d="M19.0644 116.831H15.4694L14.9984 118.522H11.7664L15.4394 108.276H18.8914L22.9204 118.522H19.6064L19.0644 116.831ZM18.3674 114.616L17.1734 110.933L16.1174 114.616H18.3674Z" fill="#0E036C"/>
<path d="M126.77 108.276H132.695C133.684 108.276 134.446 108.521 134.982 109.011C135.52 109.499 135.795 110.105 135.807 110.827C135.819 111.432 135.638 111.953 135.268 112.386C135.022 112.675 134.659 112.904 134.176 113.072C134.916 113.249 135.462 113.552 135.817 113.983C136.171 114.415 136.356 114.956 136.366 115.607C136.376 116.139 136.26 116.617 136.02 117.041C135.782 117.465 135.45 117.801 135.024 118.048C134.762 118.201 134.364 118.313 133.829 118.383C133.118 118.476 132.645 118.523 132.414 118.523H126.948L126.77 108.276ZM130.032 112.296H131.411C131.903 112.296 132.245 112.211 132.436 112.041C132.626 111.871 132.718 111.625 132.713 111.304C132.707 111.005 132.607 110.773 132.41 110.604C132.214 110.437 131.876 110.354 131.395 110.354H129.999L130.032 112.296ZM130.102 116.321H131.717C132.262 116.321 132.645 116.224 132.865 116.031C133.085 115.838 133.192 115.577 133.186 115.252C133.181 114.949 133.066 114.705 132.841 114.522C132.616 114.339 132.227 114.247 131.673 114.247H130.066L130.102 116.321Z" fill="#0E036C"/>
<path d="M35.5252 123.482C32.8212 123.482 30.3052 122.426 28.4472 120.509C26.5752 118.579 25.5972 116.017 25.6932 113.298C25.8842 107.794 30.5192 103.317 36.0272 103.317C38.7282 103.317 41.2422 104.372 43.1012 106.289C44.9752 108.218 45.9552 110.779 45.8592 113.501C45.6662 119.005 41.0322 123.482 35.5252 123.482ZM36.1612 105.252C31.6152 105.252 27.7882 108.951 27.6292 113.501C27.5542 115.669 28.3222 117.698 29.7942 119.215C31.2542 120.72 33.2422 121.548 35.3892 121.548C39.9352 121.548 43.7632 117.849 43.9212 113.299C43.9962 111.131 43.2282 109.101 41.7542 107.584C40.2942 106.08 38.3072 105.252 36.1612 105.252Z" fill="url(#paint16_linear_6_2011)"/>
<path d="M148.715 123.193C146.012 123.193 143.499 122.138 141.638 120.221C139.766 118.292 138.785 115.73 138.881 113.01C139.072 107.507 143.707 103.029 149.215 103.029C151.919 103.029 154.432 104.084 156.291 106.001C158.164 107.931 159.145 110.492 159.05 113.213C158.858 118.717 154.222 123.193 148.715 123.193ZM149.35 104.964C144.805 104.964 140.977 108.663 140.818 113.213C140.743 115.381 141.512 117.41 142.986 118.927C144.445 120.432 146.431 121.26 148.581 121.26C153.126 121.26 156.954 117.559 157.112 113.011C157.188 110.843 156.419 108.814 154.945 107.296C153.485 105.792 151.498 104.964 149.35 104.964Z" fill="url(#paint17_linear_6_2011)"/>
<path d="M34.7212 117.626L31.9482 113.946L33.4692 112.853L34.6902 114.475L38.8582 109.318L40.4032 110.596L34.7212 117.626Z" fill="#0E036C"/>
<path d="M12.7772 150.096L12.7302 137.85H0.000244141L0.0472488 150.096H12.7772Z" fill="url(#paint18_linear_6_2011)"/>
<path d="M65.6354 152.421H21.2084L21.1934 150.03H65.6194L65.6354 152.421Z" fill="white"/>
<path d="M114.735 145.226H20.7943L20.7803 142.836H114.718L114.735 145.226Z" fill="url(#paint19_linear_6_2011)"/>
<path d="M95.4354 138.034H20.0624L20.0474 135.643H95.4194L95.4354 138.034Z" fill="url(#paint20_linear_6_2011)"/>
<path d="M83.6884 152.421H70.2054L70.1904 150.03H83.6724L83.6884 152.421Z" fill="white"/>
<path d="M65.8981 174.701H49.2581L49.1921 172.938H65.8301L65.8981 174.701Z" fill="white"/>
<path d="M84.1042 169.399H48.9222L48.8552 167.637H84.0352L84.1042 169.399Z" fill="url(#paint21_linear_6_2011)"/>
<path d="M72.6582 174.701H67.6092L67.5432 172.938H72.5912L72.6582 174.701Z" fill="white"/>
<path d="M180.79 174.701H164.153L164.086 172.938H180.725L180.79 174.701Z" fill="white"/>
<path d="M198.996 169.399H163.815L163.749 167.637H198.931L198.996 169.399Z" fill="url(#paint22_linear_6_2011)"/>
<path d="M187.552 174.701H182.502L182.436 172.938H187.486L187.552 174.701Z" fill="white"/>
<path d="M167.249 152.421H122.823L122.806 150.03H167.235L167.249 152.421Z" fill="white"/>
<path d="M216.349 145.226H122.408L122.394 142.836H216.333L216.349 145.226Z" fill="url(#paint23_linear_6_2011)"/>
<path d="M197.049 138.034H121.676L121.661 135.643H197.033L197.049 138.034Z" fill="url(#paint24_linear_6_2011)"/>
<path d="M185.302 152.421H171.82L171.805 150.03H185.285L185.302 152.421Z" fill="white"/>
<path d="M18.6383 173.719H15.0433L14.5723 175.41H11.3413L15.0123 165.165H18.4673L22.4943 175.41H19.1803L18.6383 173.719ZM17.9423 171.504L16.7473 167.82L15.6923 171.504H17.9423Z" fill="#0E036C"/>
<path d="M126.343 165.165H132.269C133.257 165.165 134.019 165.409 134.557 165.898C135.094 166.387 135.369 166.993 135.381 167.714C135.392 168.32 135.213 168.841 134.842 169.273C134.596 169.563 134.232 169.791 133.75 169.959C134.489 170.137 135.035 170.439 135.392 170.871C135.746 171.303 135.929 171.844 135.941 172.496C135.95 173.027 135.836 173.504 135.595 173.929C135.355 174.353 135.024 174.688 134.6 174.936C134.336 175.089 133.937 175.201 133.403 175.271C132.692 175.365 132.22 175.411 131.987 175.411H126.521L126.343 165.165ZM129.607 169.183H130.984C131.478 169.183 131.821 169.097 132.01 168.927C132.199 168.757 132.292 168.511 132.286 168.191C132.281 167.892 132.181 167.66 131.984 167.491C131.788 167.324 131.449 167.24 130.97 167.24H129.572L129.607 169.183ZM129.677 173.209H131.29C131.836 173.209 132.219 173.111 132.438 172.918C132.659 172.725 132.766 172.466 132.76 172.139C132.754 171.837 132.64 171.593 132.415 171.41C132.191 171.225 131.802 171.135 131.247 171.135H129.64L129.677 173.209Z" fill="#0E036C"/>
<path d="M35.0982 180.369C32.3962 180.369 29.8832 179.314 28.0232 177.398C26.1502 175.468 25.1702 172.906 25.2662 170.186C25.4582 164.683 30.0932 160.205 35.6002 160.205C38.3052 160.205 40.8172 161.261 42.6762 163.176C44.5482 165.106 45.5282 167.667 45.4322 170.389C45.2402 175.892 40.6062 180.369 35.0982 180.369ZM35.7362 162.14C31.1892 162.14 27.3622 165.839 27.2042 170.389C27.1282 172.557 27.8962 174.586 29.3712 176.103C30.8312 177.608 32.8162 178.436 34.9632 178.436C39.5102 178.436 43.3372 174.735 43.4952 170.187C43.5712 168.018 42.8032 165.989 41.3292 164.471C39.8672 162.968 37.8832 162.14 35.7362 162.14Z" fill="url(#paint25_linear_6_2011)"/>
<path d="M148.288 180.082C145.585 180.082 143.07 179.025 141.211 177.109C139.339 175.178 138.361 172.618 138.456 169.897C138.647 164.394 143.283 159.916 148.791 159.916C151.492 159.916 154.005 160.973 155.864 162.889C157.738 164.819 158.718 167.379 158.623 170.1C158.431 175.603 153.795 180.082 148.288 180.082ZM148.926 161.851C144.38 161.851 140.553 165.55 140.394 170.099C140.319 172.267 141.087 174.296 142.559 175.814C144.02 177.318 146.006 178.147 148.154 178.147C152.699 178.147 156.527 174.446 156.685 169.897C156.76 167.729 155.992 165.701 154.518 164.183C153.059 162.68 151.074 161.851 148.926 161.851Z" fill="url(#paint26_linear_6_2011)"/>
<path d="M34.2942 174.514L31.5222 170.834L33.0432 169.741L34.2642 171.363L38.4312 166.205L39.9762 167.482L34.2942 174.514Z" fill="#0E036C"/>
<path d="M252.807 0H170.94V211.281H252.807V0Z" fill="url(#paint27_linear_6_2011)"/>
<path d="M178.369 72.813C177.619 72.813 177.012 73.421 177.012 74.171V90.011C177.012 90.761 177.619 91.369 178.369 91.369H245.379C246.128 91.369 246.735 90.761 246.735 90.011V74.171C246.735 73.421 246.128 72.813 245.379 72.813H178.369Z" fill="#0E036C"/>
<path d="M211.875 85.3409C213.67 85.3409 215.125 83.8859 215.125 82.0909C215.125 80.296 213.67 78.8409 211.875 78.8409C210.08 78.8409 208.625 80.296 208.625 82.0909C208.625 83.8859 210.08 85.3409 211.875 85.3409Z" fill="#0E036C"/>
<path d="M178.369 95.0909C177.619 95.0909 177.012 95.6989 177.012 96.4489V112.289C177.012 113.039 177.619 113.647 178.369 113.647H245.379C246.128 113.647 246.735 113.039 246.735 112.289V96.4489C246.735 95.6989 246.128 95.0909 245.379 95.0909H178.369Z" fill="#0E036C"/>
<path d="M211.875 107.619C213.67 107.619 215.125 106.164 215.125 104.369C215.125 102.574 213.67 101.119 211.875 101.119C210.08 101.119 208.625 102.574 208.625 104.369C208.625 106.164 210.08 107.619 211.875 107.619Z" fill="#0E036C"/>
<path d="M178.369 117.369C177.619 117.369 177.012 117.976 177.012 118.726V134.567C177.012 135.316 177.619 135.924 178.369 135.924H245.379C246.128 135.924 246.735 135.316 246.735 134.567V118.726C246.735 117.976 246.128 117.369 245.379 117.369H178.369Z" fill="#0E036C"/>
<path d="M211.875 129.896C213.67 129.896 215.125 128.441 215.125 126.646C215.125 124.851 213.67 123.396 211.875 123.396C210.08 123.396 208.625 124.851 208.625 126.646C208.625 128.441 210.08 129.896 211.875 129.896Z" fill="#0E036C"/>
<path d="M178.281 146.647C177.531 146.647 176.924 147.253 176.924 148.003L177.103 197.366C177.103 198.116 177.709 198.724 178.459 198.724H245.47C246.217 198.724 246.824 198.116 246.824 197.366L246.647 148.003C246.647 147.253 246.04 146.647 245.291 146.647H178.281Z" fill="#0E036C"/>
<path d="M211.875 176.324C213.67 176.324 215.125 174.869 215.125 173.074C215.125 171.279 213.67 169.824 211.875 169.824C210.08 169.824 208.625 171.279 208.625 173.074C208.625 174.869 210.08 176.324 211.875 176.324Z" fill="#0E036C"/>
<path d="M279.492 0H252.292V211.281H279.492V0Z" fill="#0E036C"/>
<path d="M211.875 85.3409C213.67 85.3409 215.125 83.8859 215.125 82.0909C215.125 80.296 213.67 78.8409 211.875 78.8409C210.08 78.8409 208.625 80.296 208.625 82.0909C208.625 83.8859 210.08 85.3409 211.875 85.3409Z" fill="#FFAD01"/>
<path d="M178.369 50.572C177.619 50.572 177.012 51.18 177.012 51.929V67.77C177.012 68.52 177.619 69.128 178.369 69.128H245.379C246.128 69.128 246.735 68.52 246.735 67.77V51.929C246.735 51.18 246.128 50.572 245.379 50.572H178.369Z" fill="#0E036C"/>
<path d="M211.875 63.1C213.67 63.1 215.125 61.6449 215.125 59.85C215.125 58.0551 213.67 56.6 211.875 56.6C210.08 56.6 208.625 58.0551 208.625 59.85C208.625 61.6449 210.08 63.1 211.875 63.1Z" fill="#0E036C"/>
<path d="M211.875 63.1C213.67 63.1 215.125 61.6449 215.125 59.85C215.125 58.0551 213.67 56.6 211.875 56.6C210.08 56.6 208.625 58.0551 208.625 59.85C208.625 61.6449 210.08 63.1 211.875 63.1Z" fill="#FFAD01"/>
<path d="M178.369 27.95C177.619 27.95 177.012 28.558 177.012 29.308V45.1479C177.012 45.8979 177.619 46.506 178.369 46.506H245.379C246.128 46.506 246.735 45.8979 246.735 45.1479V29.308C246.735 28.558 246.128 27.95 245.379 27.95H178.369Z" fill="#0E036C"/>
<path d="M211.875 40.478C213.67 40.478 215.125 39.023 215.125 37.228C215.125 35.4331 213.67 33.978 211.875 33.978C210.08 33.978 208.625 35.4331 208.625 37.228C208.625 39.023 210.08 40.478 211.875 40.478Z" fill="#0E036C"/>
<path d="M211.875 40.478C213.67 40.478 215.125 39.023 215.125 37.228C215.125 35.4331 213.67 33.978 211.875 33.978C210.08 33.978 208.625 35.4331 208.625 37.228C208.625 39.023 210.08 40.478 211.875 40.478Z" fill="#FFAD01"/>
<path d="M178.369 5.70898C177.619 5.70898 177.012 6.31698 177.012 7.06598V22.908C177.012 23.658 177.619 24.264 178.369 24.264H245.379C246.128 24.264 246.735 23.658 246.735 22.908V7.06598C246.735 6.31698 246.128 5.70898 245.379 5.70898H178.369Z" fill="#0E036C"/>
<path d="M211.875 18.2371C213.67 18.2371 215.125 16.782 215.125 14.9871C215.125 13.1921 213.67 11.7371 211.875 11.7371C210.08 11.7371 208.625 13.1921 208.625 14.9871C208.625 16.782 210.08 18.2371 211.875 18.2371Z" fill="#0E036C"/>
<path d="M211.875 18.2371C213.67 18.2371 215.125 16.782 215.125 14.9871C215.125 13.1921 213.67 11.7371 211.875 11.7371C210.08 11.7371 208.625 13.1921 208.625 14.9871C208.625 16.782 210.08 18.2371 211.875 18.2371Z" fill="#FFAD01"/>
<path d="M211.875 107.619C213.67 107.619 215.125 106.164 215.125 104.369C215.125 102.574 213.67 101.119 211.875 101.119C210.08 101.119 208.625 102.574 208.625 104.369C208.625 106.164 210.08 107.619 211.875 107.619Z" fill="#FFAD01"/>
<path d="M211.875 129.896C213.67 129.896 215.125 128.441 215.125 126.646C215.125 124.851 213.67 123.396 211.875 123.396C210.08 123.396 208.625 124.851 208.625 126.646C208.625 128.441 210.08 129.896 211.875 129.896Z" fill="#FFAD01"/>
<path d="M211.875 176.324C213.67 176.324 215.125 174.869 215.125 173.074C215.125 171.279 213.67 169.824 211.875 169.824C210.08 169.824 208.625 171.279 208.625 173.074C208.625 174.869 210.08 176.324 211.875 176.324Z" fill="#FFAD01"/>
<path d="M112.414 136.631L122.473 136.391V132.396L112.414 132.931V136.631Z" fill="#1B1E3D"/>
<path d="M122.473 136.391L175.62 148.464V144.099L122.473 132.396V136.391Z" fill="#0E036C"/>
<path d="M112.414 136.631L165.561 148.334L175.62 148.464L122.473 136.391L112.414 136.631Z" fill="#0E036C"/>
<path d="M120.809 138.147L112.414 211.281H116.277L134.207 140.114L126.643 138.023L120.809 138.147Z" fill="#0E036C"/>
<path d="M112.414 211.281H114.367L126.643 138.023L120.809 138.147L112.414 211.281Z" fill="#1B1E3D"/>
<path d="M163.757 145.924L157.948 146.05L175.939 211.281H179.787L172.041 147.913L163.757 145.924Z" fill="#0E036C"/>
<path d="M157.948 146.05L175.939 211.281H177.885L163.757 145.924L157.948 146.05Z" fill="#1B1E3D"/>
<path d="M184.426 184.385H110.129V189H184.426V184.385Z" fill="#0E036C"/>
<path d="M184.426 189L247.998 191.451V186.707L184.426 184.095V189Z" fill="#1B1E3D"/>
<path d="M253.699 96.959L253.701 96.957L244.034 91.924L199.024 96.2849C195.333 96.2849 192.186 98.9629 191.594 102.604L180.543 162.714C179.8 167.291 183.335 171.445 187.972 171.445H239.214C242.882 171.445 246.017 168.799 246.632 165.182L258.003 105.074C258.598 101.582 256.696 98.321 253.699 96.959Z" fill="#1B1E3D"/>
<path d="M240.509 91.0499H188.949C185.258 91.0499 182.111 93.7269 181.519 97.3699L170.468 157.478C169.725 162.057 173.259 166.21 177.895 166.21H229.138C232.807 166.21 235.941 163.564 236.557 159.948L247.926 99.8379C248.71 95.2439 245.17 91.0499 240.509 91.0499Z" fill="#6967EC"/>
<path d="M235.652 93.8889H188.555C185.184 93.8889 182.309 96.3329 181.77 99.6609L171.467 155.397C170.788 159.579 174.017 163.373 178.252 163.373H225.058C228.41 163.373 231.273 160.957 231.835 157.652L242.429 101.917C243.144 97.7189 239.909 93.8889 235.652 93.8889Z" fill="url(#paint28_linear_6_2011)"/>
<path d="M189.709 72.2479C189.709 72.2479 188.328 74.3199 189.034 76.4579C189.858 78.9529 191.504 79.0719 191.504 79.0719L189.709 72.2479Z" fill="#1B1E3D"/>
<path d="M193.543 141.267C173.955 133.761 131.265 130.647 133.195 141.757C134.534 149.461 147.823 151.885 164.508 155.966C178.405 159.366 183.207 161.821 191.078 160.882C203.135 159.446 203.359 145.027 193.543 141.267Z" fill="url(#paint29_linear_6_2011)"/>
<path d="M138.917 120.67C139.312 120.06 141.184 119.481 141.861 118.67C142.54 117.859 144.914 117.704 151.316 117.373C157.716 117.042 162.861 117.199 166.696 116.17C172.941 114.494 174.884 122.436 170.166 122.983C159.354 124.238 156.656 120.737 153.474 122.356C150.291 123.978 147.446 123.465 146.09 124.682C144.734 125.899 141.676 127.411 141.787 126.535C141.898 125.659 143.619 124.862 144.178 123.902C144.737 122.942 144.202 123.01 144.202 123.01C144.202 123.01 141.759 123.867 140.59 125.566C139.423 127.264 138.12 126.747 138.373 126.331C138.626 125.917 138.788 125.2 138.788 125.2C138.445 126.22 136.345 125.889 136.91 125.419C137.477 124.948 137.533 124.32 137.533 124.32C137.215 124.512 136.451 124.007 136.99 123.536C137.529 123.063 138.521 121.282 138.917 120.67Z" fill="white"/>
<path d="M200.137 93.534C203.312 91.934 205.831 91.262 208.107 92.959C232.229 110.948 211.628 158.18 211.628 158.18C191.87 152.803 185.39 141.546 179.823 137.38C179.321 130.407 192.636 97.317 200.137 93.534Z" fill="url(#paint30_linear_6_2011)"/>
<path d="M171.683 113.498C174.495 107.718 188.701 95.9879 188.87 95.8959C191.309 94.5579 198.968 93.1049 200.03 92.9529C199.763 93.5449 199.044 97.3769 199.044 97.3769C193.19 108.9 181.633 137.483 178.956 138.338C176.8 137.848 176.565 137.049 174.334 136.498L181.984 118.46C181.984 118.46 178.627 122.977 177.028 123.591C172.79 125.213 151.182 124.892 151.182 124.892C151.182 124.892 149.989 120.651 151.744 116.789C151.744 116.789 167.441 113.261 171.683 113.498Z" fill="#FFAD01"/>
<path d="M200.478 92.9578C200.213 93.5508 199.346 96.3999 199.043 97.3769C199.043 97.3769 198.742 97.5879 197.633 98.0919C196 98.8359 195.31 100.238 195.31 100.238C195.31 100.238 195.865 96.4058 198.161 92.8888C199.332 92.7358 199.581 92.6468 200.478 92.9578Z" fill="#6967EC"/>
<path d="M208.989 90.6219C211.822 94.5759 199.533 103.097 199.043 97.0999C198.956 96.0349 199.931 94.0369 198.428 93.1469C196.927 92.2569 207.115 84.788 207.115 84.788C207.115 84.788 207.192 88.1149 208.989 90.6219Z" fill="#FFB4A1"/>
<path d="M203.71 94.024C203.057 95.207 201.507 97.905 199.082 96.439C199.207 95.505 199.535 94.3 198.865 93.511C199.658 93.007 200.413 92.436 201.122 91.799C202.532 90.537 205.476 88.96 205.476 88.96C205.476 88.96 204.578 92.455 203.71 94.024Z" fill="#1B1E3D"/>
<path d="M204.311 144.991C184.972 139.036 146.116 133.187 146.416 143.742C146.633 151.388 156.865 158.497 173.9 161.629C188.288 164.274 190.051 165.016 198.515 163.51C211.367 161.223 214.221 148.044 204.311 144.991Z" fill="url(#paint31_linear_6_2011)"/>
<path d="M202.59 91.752C202.67 91.695 202.749 91.642 202.828 91.584C202.76 91.639 202.678 91.695 202.59 91.752Z" fill="#E38375"/>
<path d="M191.494 73.6639C193.121 73.1179 199.802 71.0199 201.375 71.4429C207.076 72.9739 208.879 81.7949 207.891 85.2909C206.905 88.7889 204.345 90.5259 202.14 92.0689C199.932 93.6129 195.363 94.9019 193.346 92.7349C191.33 90.5679 191.035 87.1539 190.529 84.7899C190.025 82.4239 190.746 82.8979 190.376 80.4249C190.006 77.9519 190.281 74.0699 191.494 73.6639Z" fill="#FFB4A1"/>
<path d="M191.776 82.686C191.689 83.01 191.376 83.209 191.077 83.13C190.778 83.05 190.604 82.722 190.691 82.396C190.778 82.072 191.018 82.235 191.317 82.314C191.616 82.394 191.862 82.36 191.776 82.686Z" fill="#1B1E3D"/>
<path d="M192.842 82.595C192.967 82.608 193.093 82.619 193.23 82.612C193.283 82.608 193.328 82.594 193.376 82.59C193.376 82.6 193.379 82.611 193.379 82.62C193.341 83.086 192.767 85.7589 192.519 86.0869C192.414 86.2259 192.446 86.358 192.493 86.444C192.578 86.602 192.807 86.779 193.178 86.758H193.184C193.453 86.74 193.633 86.692 193.792 86.649C194.087 86.567 194.343 86.498 194.78 86.745C194.938 86.836 195.149 86.744 195.243 86.606C195.399 86.375 195.165 86.137 195.014 86.016L195.345 85.5959C195.934 86.0629 195.897 86.5919 195.688 86.9059C195.52 87.1529 195.245 87.299 194.969 87.313C194.812 87.322 194.654 87.29 194.516 87.211C194.272 87.071 194.185 87.096 193.932 87.164C193.757 87.212 193.54 87.271 193.216 87.292H193.207C192.694 87.321 192.23 87.0879 192.019 86.6949C191.855 86.3849 191.88 86.037 192.085 85.769C192.232 85.528 192.788 83.184 192.842 82.595Z" fill="#1B1E3D"/>
<path d="M194.595 89.855C194.741 89.805 194.891 89.789 195.038 89.804C195.185 89.818 195.332 89.868 195.465 89.95C195.596 90.035 195.719 90.155 195.793 90.34C195.612 90.432 195.475 90.464 195.34 90.492C195.209 90.515 195.087 90.519 194.963 90.507C194.841 90.493 194.719 90.462 194.593 90.409C194.466 90.352 194.337 90.284 194.188 90.152C194.308 89.992 194.452 89.912 194.595 89.855Z" fill="#1B1E3D"/>
<path d="M194.682 88.729C194.514 88.92 194.255 89.005 194.007 89.003C193.758 88.996 193.503 88.91 193.339 88.714C193.59 88.72 193.798 88.738 194.012 88.738C194.225 88.746 194.429 88.727 194.682 88.729Z" fill="#1B1E3D"/>
<path d="M197.23 88.6039C197.312 88.5739 197.395 88.541 197.464 88.496C197.499 88.475 197.531 88.4519 197.559 88.4279C197.583 88.4109 197.617 88.3649 197.605 88.3759L197.915 88.5479C197.851 88.6389 197.81 88.6579 197.755 88.6949C197.705 88.7279 197.654 88.753 197.603 88.774C197.5 88.817 197.398 88.84 197.296 88.861C197.095 88.898 196.894 88.903 196.696 88.9C196.301 88.886 195.92 88.822 195.543 88.741C195.927 88.764 196.314 88.767 196.689 88.723C196.874 88.698 197.059 88.6639 197.23 88.6039Z" fill="#1B1E3D"/>
<path d="M202.827 98.805C202.827 98.805 202.925 98.742 203.091 98.677C203.002 98.72 202.92 98.761 202.827 98.805Z" fill="url(#paint32_linear_6_2011)"/>
<path d="M202.827 98.8049C212.693 94.2779 208.496 89.8309 208.355 89.6909C222.054 96.0689 223.317 116.878 223.496 119.628C224.934 141.945 211.669 162.718 211.669 162.718C203.769 164.839 192.345 154.913 183.413 143.756C187.344 135.516 196.185 114.675 200.107 107.202C203.033 101.626 202.827 98.8049 202.827 98.8049Z" fill="#FFAD01"/>
<path d="M217.588 108.194C223.508 110.812 218.774 136.558 207.934 140.824C195.782 145.605 191.244 136.549 192.847 132.35C195.242 126.075 213.208 106.256 217.588 108.194Z" fill="#1B1E3D"/>
<path d="M197.446 82.618C197.356 82.957 196.946 83.143 196.532 83.033C196.117 82.923 195.854 82.558 195.943 82.219C196.035 81.879 196.377 82.074 196.792 82.185C197.207 82.296 197.536 82.278 197.446 82.618Z" fill="#1B1E3D"/>
<path d="M198.02 65.7589C205.045 62.0289 212.645 70.1359 212.145 75.6269C211.561 82.0679 209.265 84.2809 208.518 88.0179C206.33 88.3829 206.191 85.1229 206.191 85.1229C206.319 83.4009 208.117 77.356 203.795 78C202.11 78.251 204.077 82.58 203.589 83.168C203.099 83.756 201.754 83.6609 201.754 83.6609C202.6 82.1389 200.567 76.927 200.567 76.927C200.567 76.927 193.096 77.3579 190.159 75.0079C187.22 72.6579 190.041 69.9299 190.041 69.9299C192.714 65.2559 198.02 65.7589 198.02 65.7589Z" fill="#1B1E3D"/>
<path d="M190.04 69.9299C192.714 65.2559 198.019 65.7589 198.019 65.7589C200.594 64.3909 203.248 64.6179 205.55 65.7229C205.253 65.6939 204.946 65.6799 204.623 65.6979C202.364 65.8259 200.958 67.0549 200.321 68.6359C199.422 67.9669 198.261 67.5749 196.85 67.6549C191.952 67.9319 191.04 73.3779 193.372 76.3849C192.123 76.0919 190.967 75.6559 190.156 75.0079C187.219 72.6579 190.04 69.9299 190.04 69.9299Z" fill="#D3D2F2"/>
<path d="M196.241 147.861L164.757 136.774L163.019 144.14L196.241 147.861Z" fill="white"/>
<path d="M183.117 144.951L160.013 136.998L158.764 142.295L183.117 144.951Z" fill="#1B1E3D"/>
<path d="M164.821 146.494L165.196 114.983L129.196 102.633C128.49 102.649 127.932 103.232 127.946 103.937L128.544 134.177L164.821 146.494Z" fill="white"/>
<path d="M196.241 147.861L165.203 144.365L164.778 146.16C164.739 146.331 164.841 146.502 165.012 146.543L194.488 149.671C195.181 149.834 195.878 149.397 196.044 148.694L196.241 147.861Z" fill="#D3D2F2"/>
<path d="M165.161 146.571C165.509 146.564 165.785 146.275 165.777 145.926L165.099 114.96C164.402 114.976 163.85 115.552 163.866 116.249L164.516 145.954C164.525 146.303 164.813 146.579 165.161 146.571Z" fill="#D3D2F2"/>
<path d="M181.582 122.596C184.035 122.197 192.237 129.656 188.454 132.171C184.672 134.689 183.438 134.666 181.778 134.507C179.836 134.321 177.462 131.841 177.922 128.856C178.734 123.576 179.945 122.861 181.582 122.596Z" fill="#1B1E3D"/>
<path d="M160.842 123.38C160.313 122.988 156.428 121.06 157.795 120.984C159.162 120.908 162.289 122.243 162.289 122.243C164.282 122.155 167.574 122.612 167.574 122.612C165.185 121.407 158.193 120.145 160.357 119.726C162.523 119.309 164.718 119.947 164.718 119.947L170.442 120.378C167.648 119.774 164.36 117.697 166.25 117.677C168.137 117.657 171.878 118.168 173.484 119.725C175.089 121.281 173.937 121.782 176.504 122.895C179.071 124.008 185.619 123.216 185.619 123.216C191.859 126.46 186.225 131.737 186.225 131.737C186.225 131.737 183.156 129.992 176.874 129.921C169.51 129.834 165.016 128.016 163.425 127.555C161.831 127.094 158.388 124.94 159.881 125.105C161.374 125.271 164.888 126.028 164.888 126.028C163.772 125.463 158.564 124.442 158.074 124.13C156.87 123.363 160.842 123.38 160.842 123.38Z" fill="#FFB4A1"/>
<path d="M181.968 122.594L200.264 123.971C204.349 120.946 204.812 108.086 207.045 104.119C212.143 95.0619 220.939 105.374 219.689 111.62C218.424 117.937 210.749 134.627 208.867 136.077C206.241 138.098 182.546 134.843 181.779 134.507C190.018 131.325 183.317 122.284 181.968 122.594Z" fill="#FFAD01"/>
<path d="M208.356 89.6899C209.35 89.3659 209.989 90.3429 211.124 90.9139C212.673 95.2619 208.979 102.84 208.979 102.84C208.979 102.84 206.783 100.315 205.41 99.1589C204.422 98.3299 203.519 98.5119 203.092 98.6769C211.658 94.3139 208.702 90.3039 208.356 89.6899Z" fill="#6967EC"/>
<path d="M198.849 81.2889C196.299 80.0449 195.537 80.3149 195.531 80.3209L194.87 79.3249C195.184 79.0839 196.248 78.6829 199.377 80.2109L198.849 81.2889Z" fill="#2B3244"/>
<path d="M190.632 80.512L190.008 79.485C191.098 78.827 192.233 79.337 192.279 79.358L191.777 80.448L192.028 79.903L191.782 80.45C191.758 80.437 191.165 80.185 190.632 80.512Z" fill="#2B3244"/>
<path d="M107.958 160.669L105.174 176.462C104.627 179.793 106.754 184.323 110.129 184.385L186.982 184.434L191.255 156.03H113.422C110.71 156.029 108.399 157.993 107.958 160.669Z" fill="white"/>
<path d="M110.309 184.114L187.163 184.162L187.92 179.127H105.495C106.095 181.695 107.874 184.068 110.309 184.114Z" fill="#6967EC"/>
<path d="M239.085 167.225L192.897 156.329C188.227 155.024 183.474 158.129 182.793 162.931L181.002 177.244C180.479 180.937 183.255 184.277 186.982 184.435L246.19 186.998L243.419 172.934C243.418 170.273 241.647 167.939 239.085 167.225Z" fill="#1B1E3D"/>
<path d="M187.301 135.451L241.709 148.334L251.77 148.464L197.361 135.21L187.301 135.451Z" fill="#0E036C"/>
<path d="M237.812 144.275L231.849 144.404L250.311 211.281H254.26L245.545 146.43L237.812 144.275Z" fill="#0E036C"/>
<path d="M231.849 144.404L250.311 211.281H252.31L237.812 144.275L231.849 144.404Z" fill="#1B1E3D"/>
<path d="M193.008 136.518L184.426 211.281H188.375L206.705 138.527L198.971 136.391L193.008 136.518Z" fill="#0E036C"/>
<path d="M184.426 211.281H186.422L198.971 136.391L193.008 136.518L184.426 211.281Z" fill="#1B1E3D"/>
<path d="M197.361 135.21L251.77 148.464V144.099L197.361 131.216V135.21Z" fill="#0E036C"/>
<path d="M187.458 135.599L197.347 135.235L197.448 131.262L187.552 131.917L187.458 135.599Z" fill="#1B1E3D"/>
<path d="M130.878 190.785C127.395 193.278 122.143 199.291 119.785 201.983C119.785 201.983 113.82 198.229 113.067 192.045C113.067 192.045 118.215 186.924 122.229 181.103C126.244 175.284 133.527 188.887 130.878 190.785Z" fill="#FFB4A1"/>
<path d="M119.325 198.604C115.327 198.755 116.59 193.857 116.564 192.333C116.537 190.81 115.317 190.16 114.145 189.974C113.248 189.832 104.124 187.976 100.323 186.87C99.0521 186.5 97.8431 185.954 96.7251 185.245L95.4801 184.454C93.6671 183.305 92.2191 183.122 90.7881 184.717C90.7791 184.72 90.7711 184.724 90.7671 184.731C90.7671 184.731 90.7671 184.736 90.7671 184.74C90.7661 184.742 90.7641 184.743 90.7621 184.746L90.7681 184.752C90.7791 185.048 88.8671 191.019 102.48 199.958C105.641 202.033 108.533 201.025 110.11 202.161C110.11 202.161 113.657 205.125 115.398 206.599L116.296 207.396L121.805 201.143C122.079 200.832 122.258 200.437 122.247 200.023C122.23 199.343 121.726 198.515 119.325 198.604Z" fill="url(#paint33_linear_6_2011)"/>
<path d="M118.67 199.414C114.671 199.564 115.934 194.665 115.907 193.142C115.883 191.619 114.687 191.796 113.726 191.015C113.243 190.623 112.502 189.659 112.502 189.659C109.49 189.053 103.286 187.733 100.321 186.87C99.0511 186.501 97.8411 185.954 96.7231 185.245L95.4791 184.454C94.0581 183.552 92.8571 183.248 91.7141 183.932C91.7141 183.932 92.0751 185.791 94.0961 187.994C96.8001 190.945 99.3541 191.475 99.3541 191.475C101.833 190.284 103.438 192.955 105.502 193.263C106.533 193.417 108.903 193.465 109.928 193.602C112.039 193.883 112.229 196.404 112.478 197.753L118.614 202.86C119.153 203.308 119.95 203.246 120.413 202.721L121.455 201.537C121.653 201.04 122.108 199.284 118.67 199.414Z" fill="url(#paint34_linear_6_2011)"/>
<path d="M111.289 189.416C108.063 188.753 102.755 187.603 100.081 186.826C99.4672 186.646 98.8652 186.426 98.2832 186.165C98.2832 186.176 98.2852 186.187 98.2852 186.199C98.4712 187.952 99.7052 189.416 101.4 189.892L108.808 191.976C110.165 192.357 111.479 191.25 111.332 189.849L111.289 189.416Z" fill="#0E036C"/>
<path d="M117.368 206.179C115.274 203.993 113.222 204.171 110.26 201.766C107.511 199.535 103.955 199.174 102.286 198.031C89.1602 189.031 90.7662 184.73 90.7662 184.73C90.1262 185.649 89.5402 187.2 90.3092 189.411C90.3092 189.411 90.5132 190.534 90.9842 190.544C90.9842 190.544 90.6342 190.845 91.0882 191.531C91.0882 191.531 91.5282 192.101 92.0002 191.847C92.0002 191.847 91.4862 192.545 92.3882 193.596C92.3882 193.596 93.7992 195.592 94.5632 195.043C94.5632 195.043 94.1772 195.846 95.0752 196.575C95.0752 196.575 96.6672 198.346 97.2582 197.816L97.5302 197.611C97.5302 197.611 97.2332 198.502 98.2892 199.297C98.2892 199.297 100.428 200.92 101.097 200.292C101.097 200.292 102.997 201.357 103.348 201.908C103.348 201.908 103.673 203.342 105.557 204.819C105.557 204.819 106.295 205.417 106.828 204.891C106.828 204.891 106.57 205.799 107.936 206.801C107.936 206.801 109.478 208.372 110.425 207.599C110.425 207.599 110.177 208.727 110.736 209.181C111.785 210.034 113.636 211.41 114.866 209.661C115.482 208.786 116.412 208.874 117.368 206.179Z" fill="white"/>
<path d="M91.0781 191.517C91.0821 191.521 91.0831 191.525 91.0881 191.53C91.0881 191.53 91.0931 191.537 91.1021 191.548C91.1221 191.516 91.1351 191.497 91.1351 191.497C91.1161 191.506 91.0981 191.512 91.0781 191.517Z" fill="white"/>
<path d="M113.687 207.391L110.813 205.059C110.687 204.955 110.5 204.974 110.396 205.102L110.075 205.499C109.972 205.626 109.991 205.813 110.118 205.916L112.991 208.248C113.118 208.352 113.305 208.331 113.408 208.205L113.73 207.808C113.833 207.682 113.813 207.494 113.687 207.391Z" fill="#0E036C"/>
<path d="M110.391 188.625C110.394 188.299 110.133 188.032 109.807 188.028C109.481 188.026 109.215 188.287 109.211 188.613L109.191 190.785C109.188 190.973 109.273 191.139 109.409 191.249C109.509 191.33 109.637 191.379 109.774 191.381C110.1 191.384 110.367 191.122 110.37 190.797L110.391 188.625Z" fill="white"/>
<path d="M107.918 188.104C107.922 187.779 107.66 187.512 107.335 187.509C107.009 187.505 106.742 187.767 106.739 188.093L106.718 190.265C106.715 190.452 106.801 190.619 106.936 190.729C107.037 190.81 107.164 190.859 107.302 190.861C107.627 190.863 107.894 190.601 107.898 190.276L107.918 188.104Z" fill="white"/>
<path d="M105.448 187.584C105.451 187.26 105.188 186.992 104.863 186.989C104.537 186.986 104.27 187.248 104.267 187.574L104.246 189.745C104.244 189.933 104.33 190.1 104.465 190.209C104.565 190.29 104.693 190.34 104.83 190.341C105.156 190.344 105.424 190.083 105.427 189.757L105.448 187.584Z" fill="white"/>
<path d="M102.976 187.065C102.978 186.739 102.717 186.473 102.39 186.469C102.064 186.466 101.798 186.728 101.794 187.054L101.774 189.226C101.773 189.412 101.857 189.58 101.993 189.69C102.093 189.771 102.221 189.82 102.359 189.821C102.684 189.825 102.952 189.562 102.954 189.236L102.976 187.065Z" fill="white"/>
<path d="M145.011 144.212C145.011 144.212 119.736 181.987 116.065 188.643C116.065 188.643 119.611 196.772 128.125 197.613C128.125 197.613 157.28 166.623 158.982 158.941C160.676 151.288 145.011 144.212 145.011 144.212Z" fill="url(#paint35_linear_6_2011)"/>
<path d="M138.31 182.863C136.344 187.083 134.457 195.115 133.606 198.715C133.606 198.715 126.385 199.997 122.734 195.928C122.734 195.928 124.952 188.627 125.805 181.582C126.659 174.537 139.804 179.653 138.31 182.863Z" fill="#FFB4A1"/>
<path d="M131.042 196.537C128.199 199.355 125.813 194.894 124.763 193.791C123.712 192.687 122.375 193.033 121.386 193.691C120.629 194.195 112.656 199.004 109.111 200.761C107.926 201.35 106.664 201.767 105.362 202L103.91 202.263C101.8 202.642 100.608 203.489 100.635 205.63C100.63 205.64 100.628 205.648 100.629 205.656C100.629 205.656 100.633 205.658 100.635 205.662C100.635 205.664 100.635 205.667 100.635 205.67L100.642 205.669C100.852 205.881 103.487 211.569 119.556 208.934C123.288 208.323 124.734 205.623 126.663 205.392C126.663 205.392 131.279 205.172 133.562 205.079L134.762 205.058L134.583 196.726C134.574 196.312 134.437 195.9 134.149 195.602C133.678 195.116 132.746 194.846 131.042 196.537Z" fill="url(#paint36_linear_6_2011)"/>
<path d="M131.107 197.577C128.264 200.395 125.878 195.932 124.827 194.829C123.777 193.726 123.018 194.665 121.782 194.741C121.161 194.779 119.964 194.571 119.964 194.571C117.337 196.162 111.877 199.39 109.11 200.763C107.926 201.35 106.663 201.767 105.362 202.001L103.91 202.263C102.253 202.56 101.165 203.149 100.786 204.426C100.786 204.426 102.31 205.55 105.288 205.804C109.276 206.144 111.515 204.806 111.515 204.806C112.534 202.251 115.523 203.131 117.251 201.96C118.114 201.374 119.892 199.806 120.738 199.213C122.483 197.989 124.328 199.718 125.425 200.542L133.4 200.148C134.099 200.113 134.644 199.528 134.629 198.829L134.595 197.251C134.402 196.754 133.547 195.153 131.107 197.577Z" fill="url(#paint37_linear_6_2011)"/>
<path d="M119.047 195.131C116.225 196.826 111.539 199.572 109.043 200.812C108.471 201.096 107.879 201.339 107.272 201.543C107.281 201.55 107.29 201.558 107.298 201.566C108.619 202.73 110.519 202.972 112.091 202.175L118.954 198.693C120.21 198.056 120.429 196.352 119.371 195.42L119.047 195.131Z" fill="#0E036C"/>
<path d="M134.727 203.436C131.707 203.245 130.317 204.765 126.507 205C122.975 205.218 120.113 207.36 118.11 207.648C102.357 209.909 100.629 205.656 100.629 205.656C100.78 206.764 101.398 208.303 103.459 209.411C103.459 209.411 104.371 210.099 104.724 209.787C104.724 209.787 104.67 210.245 105.468 210.444C105.468 210.444 106.178 210.566 106.354 210.058C106.354 210.058 106.449 210.92 107.824 211.083C107.824 211.083 110.214 211.598 110.404 210.677C110.404 210.677 110.665 211.529 111.818 211.458C111.818 211.458 114.189 211.684 114.264 210.894L114.327 210.559C114.327 210.559 114.71 211.415 116.026 211.287C116.026 211.287 118.699 211.034 118.767 210.12C118.767 210.12 120.885 209.617 121.517 209.783C121.517 209.783 122.726 210.62 125.114 210.43C125.114 210.43 126.062 210.371 126.098 209.624C126.098 209.624 126.522 210.467 128.207 210.28C128.207 210.28 130.405 210.392 130.579 209.182C130.579 209.182 131.159 210.18 131.878 210.136C133.228 210.052 135.522 209.812 135.243 207.695C135.103 206.633 135.847 206.067 134.727 203.436Z" fill="white"/>
<path d="M105.451 210.44C105.457 210.441 105.462 210.444 105.467 210.445C105.467 210.445 105.477 210.446 105.489 210.449C105.48 210.412 105.478 210.388 105.478 210.388C105.472 210.408 105.461 210.424 105.451 210.44Z" fill="white"/>
<path d="M132.838 206.822L129.145 207.051C128.982 207.06 128.858 207.201 128.868 207.364L128.899 207.874C128.91 208.038 129.05 208.162 129.213 208.152L132.905 207.924C133.069 207.913 133.193 207.773 133.183 207.61L133.152 207.099C133.142 206.936 133.001 206.812 132.838 206.822Z" fill="#0E036C"/>
<path d="M117.708 195.239C117.49 194.998 117.117 194.978 116.875 195.197C116.633 195.415 116.613 195.787 116.832 196.03L118.287 197.642C118.412 197.781 118.59 197.846 118.763 197.835C118.891 197.827 119.018 197.776 119.121 197.684C119.363 197.466 119.382 197.093 119.164 196.851L117.708 195.239Z" fill="white"/>
<path d="M115.537 196.53C115.318 196.289 114.946 196.269 114.703 196.487C114.462 196.706 114.443 197.079 114.661 197.32L116.115 198.932C116.241 199.072 116.417 199.137 116.59 199.126C116.719 199.117 116.846 199.067 116.949 198.976C117.19 198.756 117.21 198.384 116.991 198.142L115.537 196.53Z" fill="white"/>
<path d="M113.366 197.82C113.148 197.579 112.775 197.56 112.534 197.778C112.292 197.996 112.271 198.369 112.489 198.611L113.945 200.224C114.07 200.362 114.247 200.427 114.421 200.417C114.549 200.408 114.677 200.359 114.778 200.266C115.02 200.048 115.04 199.675 114.821 199.433L113.366 197.82Z" fill="white"/>
<path d="M111.196 199.112C110.976 198.871 110.604 198.85 110.361 199.068C110.12 199.288 110.101 199.66 110.319 199.902L111.774 201.514C111.899 201.654 112.076 201.719 112.248 201.707C112.377 201.7 112.504 201.649 112.606 201.557C112.849 201.338 112.869 200.965 112.65 200.724L111.196 199.112Z" fill="white"/>
<path d="M133.408 139.683C129.495 153.923 123.816 184.248 122.857 191.788C122.857 191.788 129.151 198.036 137.375 195.679C137.375 195.679 153.047 156.121 151.798 148.353C150.551 140.617 134.752 134.79 133.408 139.683Z" fill="url(#paint38_linear_6_2011)"/>
<path d="M137.921 195.209L136.817 194.737C146.909 171.14 150.936 152.519 150.976 152.334L152.15 152.585C152.11 152.771 148.058 171.506 137.921 195.209Z" fill="#1B1E3D"/>
<defs>
<linearGradient id="paint0_linear_6_2011" x1="0.852095" y1="30.1972" x2="13.6275" y2="30.1972" gradientUnits="userSpaceOnUse">
<stop offset="5.4e-07" stop-color="#FFB504"/>
<stop offset="1" stop-color="#FF6501"/>
</linearGradient>
<linearGradient id="paint1_linear_6_2011" x1="21.6312" y1="30.2567" x2="115.585" y2="30.2567" gradientUnits="userSpaceOnUse">
<stop offset="5.4e-07" stop-color="#5451C2"/>
<stop offset="1" stop-color="#3F3AA1"/>
</linearGradient>
<linearGradient id="paint2_linear_6_2011" x1="20.8989" y1="23.0634" x2="96.2866" y2="23.0634" gradientUnits="userSpaceOnUse">
<stop offset="5.4e-07" stop-color="#5451C2"/>
<stop offset="1" stop-color="#3F3AA1"/>
</linearGradient>
<linearGradient id="paint3_linear_6_2011" x1="49.7076" y1="54.7422" x2="84.9547" y2="54.7422" gradientUnits="userSpaceOnUse">
<stop offset="5.4e-07" stop-color="#5451C2"/>
<stop offset="1" stop-color="#3F3AA1"/>
</linearGradient>
<linearGradient id="paint4_linear_6_2011" x1="164.6" y1="54.7422" x2="199.849" y2="54.7422" gradientUnits="userSpaceOnUse">
<stop offset="5.4e-07" stop-color="#5451C2"/>
<stop offset="1" stop-color="#3F3AA1"/>
</linearGradient>
<linearGradient id="paint5_linear_6_2011" x1="123.245" y1="30.2567" x2="217.201" y2="30.2567" gradientUnits="userSpaceOnUse">
<stop offset="5.4e-07" stop-color="#5451C2"/>
<stop offset="1" stop-color="#3F3AA1"/>
</linearGradient>
<linearGradient id="paint6_linear_6_2011" x1="122.513" y1="23.0634" x2="197.9" y2="23.0634" gradientUnits="userSpaceOnUse">
<stop offset="5.4e-07" stop-color="#5451C2"/>
<stop offset="1" stop-color="#3F3AA1"/>
</linearGradient>
<linearGradient id="paint7_linear_6_2011" x1="26.1108" y1="56.5126" x2="46.2925" y2="56.5126" gradientUnits="userSpaceOnUse">
<stop offset="5.4e-07" stop-color="#FFB504"/>
<stop offset="1" stop-color="#FF6501"/>
</linearGradient>
<linearGradient id="paint8_linear_6_2011" x1="139.301" y1="56.2246" x2="159.482" y2="56.2246" gradientUnits="userSpaceOnUse">
<stop offset="5.4e-07" stop-color="#FFB504"/>
<stop offset="1" stop-color="#FF6501"/>
</linearGradient>
<linearGradient id="paint9_linear_6_2011" x1="0.427246" y1="87.0858" x2="13.2016" y2="87.0858" gradientUnits="userSpaceOnUse">
<stop offset="5.4e-07" stop-color="#FFB504"/>
<stop offset="1" stop-color="#FF6501"/>
</linearGradient>
<linearGradient id="paint10_linear_6_2011" x1="21.2045" y1="87.1445" x2="115.161" y2="87.1445" gradientUnits="userSpaceOnUse">
<stop offset="5.4e-07" stop-color="#5451C2"/>
<stop offset="1" stop-color="#3F3AA1"/>
</linearGradient>
<linearGradient id="paint11_linear_6_2011" x1="20.473" y1="79.9512" x2="95.8597" y2="79.9512" gradientUnits="userSpaceOnUse">
<stop offset="5.4e-07" stop-color="#5451C2"/>
<stop offset="1" stop-color="#3F3AA1"/>
</linearGradient>
<linearGradient id="paint12_linear_6_2011" x1="49.2808" y1="111.631" x2="84.5298" y2="111.631" gradientUnits="userSpaceOnUse">
<stop offset="5.4e-07" stop-color="#5451C2"/>
<stop offset="1" stop-color="#3F3AA1"/>
</linearGradient>
<linearGradient id="paint13_linear_6_2011" x1="164.176" y1="111.631" x2="199.423" y2="111.631" gradientUnits="userSpaceOnUse">
<stop offset="5.4e-07" stop-color="#5451C2"/>
<stop offset="1" stop-color="#3F3AA1"/>
</linearGradient>
<linearGradient id="paint14_linear_6_2011" x1="122.819" y1="87.1445" x2="216.774" y2="87.1445" gradientUnits="userSpaceOnUse">
<stop offset="5.4e-07" stop-color="#5451C2"/>
<stop offset="1" stop-color="#3F3AA1"/>
</linearGradient>
<linearGradient id="paint15_linear_6_2011" x1="122.086" y1="79.9512" x2="197.476" y2="79.9512" gradientUnits="userSpaceOnUse">
<stop offset="5.4e-07" stop-color="#5451C2"/>
<stop offset="1" stop-color="#3F3AA1"/>
</linearGradient>
<linearGradient id="paint16_linear_6_2011" x1="25.686" y1="113.4" x2="45.8657" y2="113.4" gradientUnits="userSpaceOnUse">
<stop offset="5.4e-07" stop-color="#FFB504"/>
<stop offset="1" stop-color="#FF6501"/>
</linearGradient>
<linearGradient id="paint17_linear_6_2011" x1="138.874" y1="113.111" x2="159.056" y2="113.111" gradientUnits="userSpaceOnUse">
<stop offset="5.4e-07" stop-color="#FFB504"/>
<stop offset="1" stop-color="#FF6501"/>
</linearGradient>
<linearGradient id="paint18_linear_6_2011" x1="0.000544141" y1="143.973" x2="12.7768" y2="143.973" gradientUnits="userSpaceOnUse">
<stop offset="5.4e-07" stop-color="#FFB504"/>
<stop offset="1" stop-color="#FF6501"/>
</linearGradient>
<linearGradient id="paint19_linear_6_2011" x1="20.7799" y1="144.031" x2="114.735" y2="144.031" gradientUnits="userSpaceOnUse">
<stop offset="5.4e-07" stop-color="#5451C2"/>
<stop offset="1" stop-color="#3F3AA1"/>
</linearGradient>
<linearGradient id="paint20_linear_6_2011" x1="20.0475" y1="136.839" x2="95.4352" y2="136.839" gradientUnits="userSpaceOnUse">
<stop offset="5.4e-07" stop-color="#5451C2"/>
<stop offset="1" stop-color="#3F3AA1"/>
</linearGradient>
<linearGradient id="paint21_linear_6_2011" x1="48.855" y1="168.518" x2="84.104" y2="168.518" gradientUnits="userSpaceOnUse">
<stop offset="5.4e-07" stop-color="#5451C2"/>
<stop offset="1" stop-color="#3F3AA1"/>
</linearGradient>
<linearGradient id="paint22_linear_6_2011" x1="163.75" y1="168.518" x2="198.997" y2="168.518" gradientUnits="userSpaceOnUse">
<stop offset="5.4e-07" stop-color="#5451C2"/>
<stop offset="1" stop-color="#3F3AA1"/>
</linearGradient>
<linearGradient id="paint23_linear_6_2011" x1="122.394" y1="144.031" x2="216.349" y2="144.031" gradientUnits="userSpaceOnUse">
<stop offset="5.4e-07" stop-color="#5451C2"/>
<stop offset="1" stop-color="#3F3AA1"/>
</linearGradient>
<linearGradient id="paint24_linear_6_2011" x1="121.662" y1="136.839" x2="197.049" y2="136.839" gradientUnits="userSpaceOnUse">
<stop offset="5.4e-07" stop-color="#5451C2"/>
<stop offset="1" stop-color="#3F3AA1"/>
</linearGradient>
<linearGradient id="paint25_linear_6_2011" x1="25.2593" y1="170.287" x2="45.439" y2="170.287" gradientUnits="userSpaceOnUse">
<stop offset="5.4e-07" stop-color="#FFB504"/>
<stop offset="1" stop-color="#FF6501"/>
</linearGradient>
<linearGradient id="paint26_linear_6_2011" x1="138.451" y1="169.999" x2="158.629" y2="169.999" gradientUnits="userSpaceOnUse">
<stop offset="5.4e-07" stop-color="#FFB504"/>
<stop offset="1" stop-color="#FF6501"/>
</linearGradient>
<linearGradient id="paint27_linear_6_2011" x1="170.94" y1="105.641" x2="252.807" y2="105.641" gradientUnits="userSpaceOnUse">
<stop offset="5.4e-07" stop-color="#5451C2"/>
<stop offset="1" stop-color="#3F3AA1"/>
</linearGradient>
<linearGradient id="paint28_linear_6_2011" x1="171.376" y1="128.631" x2="242.529" y2="128.631" gradientUnits="userSpaceOnUse">
<stop offset="5.4e-07" stop-color="#5451C2"/>
<stop offset="1" stop-color="#3F3AA1"/>
</linearGradient>
<linearGradient id="paint29_linear_6_2011" x1="133.132" y1="147.791" x2="200.544" y2="147.791" gradientUnits="userSpaceOnUse">
<stop offset="5.4e-07" stop-color="#5451C2"/>
<stop offset="1" stop-color="#3F3AA1"/>
</linearGradient>
<linearGradient id="paint30_linear_6_2011" x1="220.11" y1="124.406" x2="179.22" y2="126.716" gradientUnits="userSpaceOnUse">
<stop offset="5.4e-07" stop-color="#FFB504"/>
<stop offset="1" stop-color="#FF6501"/>
</linearGradient>
<linearGradient id="paint31_linear_6_2011" x1="183.845" y1="150.225" x2="174.041" y2="151.247" gradientUnits="userSpaceOnUse">
<stop offset="5.4e-07" stop-color="#5451C2"/>
<stop offset="1" stop-color="#3F3AA1"/>
</linearGradient>
<linearGradient id="paint32_linear_6_2011" x1="202.931" y1="98.827" x2="202.988" y2="98.6576" gradientUnits="userSpaceOnUse">
<stop offset="5.4e-07" stop-color="#BADDFF"/>
<stop offset="1" stop-color="white"/>
</linearGradient>
<linearGradient id="paint33_linear_6_2011" x1="121.936" y1="194.497" x2="91.2663" y2="196.229" gradientUnits="userSpaceOnUse">
<stop offset="5.4e-07" stop-color="#FFB504"/>
<stop offset="1" stop-color="#FF6501"/>
</linearGradient>
<linearGradient id="paint34_linear_6_2011" x1="121.122" y1="192.516" x2="92.2934" y2="194.144" gradientUnits="userSpaceOnUse">
<stop offset="5.4e-07" stop-color="#5451C2"/>
<stop offset="1" stop-color="#3F3AA1"/>
</linearGradient>
<linearGradient id="paint35_linear_6_2011" x1="116.065" y1="170.912" x2="159.11" y2="170.912" gradientUnits="userSpaceOnUse">
<stop offset="5.4e-07" stop-color="#5451C2"/>
<stop offset="1" stop-color="#3F3AA1"/>
</linearGradient>
<linearGradient id="paint36_linear_6_2011" x1="134.792" y1="200.405" x2="100.441" y2="202.345" gradientUnits="userSpaceOnUse">
<stop offset="5.4e-07" stop-color="#FFB504"/>
<stop offset="1" stop-color="#FF6501"/>
</linearGradient>
<linearGradient id="paint37_linear_6_2011" x1="134.692" y1="198.984" x2="100.587" y2="200.911" gradientUnits="userSpaceOnUse">
<stop offset="5.4e-07" stop-color="#5451C2"/>
<stop offset="1" stop-color="#3F3AA1"/>
</linearGradient>
<linearGradient id="paint38_linear_6_2011" x1="122.858" y1="167.049" x2="151.87" y2="167.049" gradientUnits="userSpaceOnUse">
<stop offset="5.4e-07" stop-color="#5451C2"/>
<stop offset="1" stop-color="#3F3AA1"/>
</linearGradient>
</defs>
</svg>
