<svg width="117" height="47" viewBox="0 0 117 47" fill="none" xmlns="http://www.w3.org/2000/svg">
<path d="M113.355 4.66798C113.817 2.22698 115.843 2.49098 116.268 0.47998H21.9524C22.8064 2.06198 23.5884 3.56398 23.7984 4.66798C24.3254 7.44698 19.4064 11.742 20.3864 14.332C21.3824 16.967 27.9194 16.935 29.3364 19.328C30.7674 21.742 27.5984 27.455 29.4114 29.576C31.2284 31.703 37.3684 29.466 39.5224 31.252C41.6694 33.03 40.6144 39.481 43.0494 40.875C45.4634 42.254 50.4794 38.074 53.1304 39.029C55.7344 39.967 56.9324 46.394 59.7214 46.877C62.4324 47.348 65.7294 41.712 68.5754 41.712C71.4234 41.712 74.7184 47.348 77.4304 46.877C80.2194 46.395 81.4174 39.967 84.0214 39.029C86.6704 38.074 91.6894 42.254 94.1034 40.874C96.5384 39.48 95.4824 33.03 97.6304 31.25C99.7844 29.466 105.924 31.701 107.74 29.576C109.553 27.453 106.386 21.74 107.815 19.326C109.233 16.934 115.77 16.967 116.764 14.332C117.744 11.742 112.827 7.44698 113.355 4.66798Z" fill="url(#paint0_linear_6_2565)"/>
<path d="M54.2583 46.121C52.5843 46.121 51.0443 44.752 49.5513 43.423C48.4193 42.415 47.1353 41.274 46.3063 41.274C45.4783 41.274 44.1943 42.416 43.0613 43.423C41.4153 44.888 39.7123 46.399 37.8343 46.077C35.9003 45.742 34.7913 43.703 33.7183 41.73C33.0463 40.496 32.2113 38.96 31.4813 38.697C30.7213 38.424 29.1393 39.054 27.7473 39.613C25.6853 40.436 23.5533 41.289 21.8843 40.332C20.1963 39.368 19.8463 37.085 19.5093 34.877C19.2943 33.477 19.0303 31.735 18.4203 31.232C17.8083 30.724 16.0433 30.789 14.6233 30.836C12.3943 30.919 10.0933 30.996 8.83427 29.523C7.57927 28.053 8.01927 25.795 8.44227 23.612C8.71327 22.216 9.05128 20.477 8.64328 19.788C8.24428 19.113 6.57127 18.579 5.22627 18.149C3.09327 17.467 0.889276 16.763 0.199276 14.938C-0.477724 13.142 0.696279 11.177 1.83128 9.276C2.60428 7.984 3.47927 6.518 3.32827 5.715C3.15027 4.777 2.32028 3.245 1.51628 1.763L1.17828 1.137L3.29228 0L3.62727 0.620003C4.55827 2.34 5.43728 3.964 5.68628 5.266C6.00627 6.965 4.93127 8.765 3.89027 10.507C3.12627 11.785 2.17627 13.378 2.44427 14.088C2.72427 14.829 4.51627 15.401 5.95727 15.862C7.86827 16.472 9.84427 17.102 10.7093 18.563C11.5833 20.038 11.1853 22.086 10.7983 24.068C10.5123 25.54 10.1553 27.373 10.6593 27.963C11.1663 28.555 13.0363 28.489 14.5373 28.437C16.5513 28.365 18.6363 28.291 19.9513 29.381C21.2633 30.467 21.5773 32.524 21.8823 34.511C22.1093 36.002 22.3933 37.856 23.0743 38.246C23.7413 38.627 25.4683 37.936 26.8543 37.381C28.7343 36.63 30.6783 35.856 32.2953 36.438C33.8833 37.009 34.8693 38.826 35.8263 40.581C36.5513 41.914 37.4553 43.573 38.2443 43.71C38.9753 43.815 40.3583 42.612 41.4673 41.628C42.9883 40.274 44.5643 38.871 46.3063 38.871C48.0493 38.871 49.6233 40.273 51.1473 41.628C52.2533 42.613 53.6313 43.838 54.3683 43.71C55.1593 43.573 56.0623 41.914 56.7873 40.581C57.7433 38.826 58.7313 37.01 60.3193 36.438C61.9383 35.852 63.8823 36.63 65.7583 37.381C67.1463 37.937 68.8743 38.627 69.5413 38.246C70.2233 37.855 70.5053 36.002 70.7333 34.511C71.0373 32.524 71.3513 30.467 72.6623 29.38C73.9793 28.29 76.0643 28.358 78.0763 28.435C79.5813 28.487 81.4493 28.555 81.9553 27.962C82.4583 27.372 82.1013 25.539 81.8143 24.067C81.4303 22.086 81.0323 20.037 81.9043 18.561C82.7683 17.101 84.7463 16.471 86.6573 15.86C88.0953 15.401 89.8883 14.828 90.1683 14.088C90.4383 13.378 89.4863 11.785 88.7223 10.507C87.6823 8.765 86.6063 6.964 86.9283 5.266C87.2393 3.623 88.1603 2.9 88.8343 2.371C89.4413 1.895 89.6923 1.698 89.7043 0.875999L92.1033 0.913002C92.0733 2.88 91.0573 3.677 90.3153 4.259C89.7623 4.695 89.4293 4.955 89.2853 5.714C89.1333 6.517 90.0093 7.983 90.7823 9.275C91.9183 11.176 93.0923 13.141 92.4133 14.937C91.7253 16.762 89.5183 17.466 87.3863 18.148C86.0433 18.577 84.3693 19.111 83.9693 19.786C83.5613 20.475 83.9003 22.213 84.1703 23.61C84.5973 25.793 85.0353 28.051 83.7793 29.521C82.5203 30.995 80.2163 30.917 77.9923 30.834C76.5743 30.785 74.8063 30.723 74.1953 31.229C73.5863 31.734 73.3183 33.475 73.1053 34.875C72.7673 37.082 72.4183 39.365 70.7313 40.33C69.0573 41.287 66.9273 40.434 64.8673 39.611C63.4723 39.052 61.8903 38.423 61.1313 38.695C60.4023 38.959 59.5663 40.494 58.8963 41.728C57.8233 43.701 56.7113 45.74 54.7783 46.075C54.6033 46.107 54.4313 46.121 54.2583 46.121Z" fill="url(#paint1_linear_6_2565)"/>
<defs>
<linearGradient id="paint0_linear_6_2565" x1="20.2554" y1="23.6933" x2="116.895" y2="23.6933" gradientUnits="userSpaceOnUse">
<stop offset="5.4e-07" stop-color="#5451C2"/>
<stop offset="1" stop-color="#3F3AA1"/>
</linearGradient>
<linearGradient id="paint1_linear_6_2565" x1="-0.000624081" y1="23.0614" x2="92.6137" y2="23.0614" gradientUnits="userSpaceOnUse">
<stop offset="5.4e-07" stop-color="#FFB504"/>
<stop offset="1" stop-color="#FF6501"/>
</linearGradient>
</defs>
</svg>
