<svg width="285" height="404" viewBox="0 0 285 404" fill="none" xmlns="http://www.w3.org/2000/svg">
<path d="M18.316 228.423L18.269 216.176H5.54102L5.58901 228.423H18.316Z" fill="url(#paint0_linear_6_2564)"/>
<path d="M71.1759 230.746H26.7489L26.7319 228.356H71.1609L71.1759 230.746Z" fill="white"/>
<path d="M120.274 223.554H26.3338L26.3198 221.163H120.259L120.274 223.554Z" fill="url(#paint1_linear_6_2564)"/>
<path d="M100.975 216.361H25.6029L25.5879 213.97H100.959L100.975 216.361Z" fill="url(#paint2_linear_6_2564)"/>
<path d="M89.228 230.746H75.746L75.731 228.356H89.213L89.228 230.746Z" fill="white"/>
<path d="M71.4369 253.028H54.7989L54.7329 251.265H71.3719L71.4369 253.028Z" fill="white"/>
<path d="M89.643 247.726H54.462L54.396 245.963H89.577L89.643 247.726Z" fill="url(#paint3_linear_6_2564)"/>
<path d="M78.199 253.028H73.149L73.083 251.265H78.133L78.199 253.028Z" fill="white"/>
<path d="M186.332 253.028H169.693L169.627 251.265H186.264L186.332 253.028Z" fill="white"/>
<path d="M204.538 247.726H169.355L169.289 245.963H204.471L204.538 247.726Z" fill="url(#paint4_linear_6_2564)"/>
<path d="M193.092 253.028H188.044L187.976 251.265H193.026L193.092 253.028Z" fill="white"/>
<path d="M172.791 230.746H128.362L128.347 228.356H172.774L172.791 230.746Z" fill="white"/>
<path d="M221.889 223.554H127.95L127.933 221.163H221.873L221.889 223.554Z" fill="url(#paint5_linear_6_2564)"/>
<path d="M202.589 216.361H127.217L127.202 213.97H202.575L202.589 216.361Z" fill="url(#paint6_linear_6_2564)"/>
<path d="M190.842 230.746H177.361L177.345 228.356H190.828L190.842 230.746Z" fill="white"/>
<path d="M24.1781 252.045H20.5841L20.1141 253.736H16.8821L20.5541 243.49H24.0071L28.0361 253.736H24.7201L24.1781 252.045ZM23.4821 249.83L22.2881 246.147L21.2321 249.83H23.4821Z" fill="#0E036C"/>
<path d="M131.883 243.491H137.811C138.797 243.491 139.56 243.736 140.098 244.226C140.635 244.714 140.911 245.321 140.923 246.042C140.934 246.647 140.754 247.167 140.384 247.601C140.138 247.89 139.774 248.118 139.291 248.287C140.029 248.463 140.578 248.767 140.932 249.198C141.286 249.63 141.469 250.171 141.481 250.823C141.491 251.354 141.376 251.832 141.136 252.256C140.897 252.681 140.565 253.016 140.14 253.263C139.877 253.416 139.479 253.528 138.945 253.598C138.233 253.692 137.761 253.738 137.528 253.738H132.063L131.883 243.491ZM135.147 247.51H136.523C137.017 247.51 137.36 247.425 137.549 247.255C137.74 247.085 137.833 246.839 137.827 246.518C137.821 246.219 137.72 245.986 137.524 245.819C137.329 245.651 136.99 245.568 136.51 245.568H135.112L135.147 247.51ZM135.218 251.535H136.833C137.377 251.535 137.76 251.439 137.98 251.246C138.2 251.053 138.306 250.792 138.302 250.467C138.296 250.164 138.181 249.921 137.957 249.737C137.731 249.553 137.343 249.461 136.787 249.461H135.181L135.218 251.535Z" fill="#0E036C"/>
<path d="M40.6389 258.698C37.9349 258.698 35.4229 257.641 33.5619 255.724C31.6889 253.794 30.7089 251.234 30.8059 248.514C30.9969 243.009 35.6309 238.532 41.1389 238.532C43.8429 238.532 46.3549 239.588 48.2159 241.505C50.0889 243.435 51.0699 245.995 50.9739 248.716C50.7819 254.219 46.1459 258.698 40.6389 258.698ZM41.2749 240.466C36.7279 240.466 32.9009 244.167 32.7419 248.715C32.6669 250.883 33.4349 252.911 34.9099 254.43C36.3699 255.934 38.3559 256.762 40.5049 256.762C45.0509 256.762 48.8789 253.063 49.0359 248.514C49.1119 246.346 48.3439 244.316 46.8699 242.798C45.4099 241.295 43.4229 240.466 41.2749 240.466Z" fill="url(#paint7_linear_6_2564)"/>
<path d="M153.83 258.409C151.127 258.409 148.615 257.354 146.754 255.436C144.881 253.506 143.901 250.946 143.996 248.225C144.187 242.721 148.823 238.244 154.331 238.244C157.033 238.244 159.546 239.299 161.407 241.216C163.279 243.145 164.26 245.708 164.164 248.428C163.973 253.931 159.338 258.409 153.83 258.409ZM154.465 240.178C149.92 240.178 146.092 243.877 145.934 248.427C145.859 250.595 146.627 252.623 148.102 254.142C149.561 255.646 151.547 256.474 153.697 256.474C158.241 256.474 162.07 252.775 162.228 248.225C162.303 246.057 161.534 244.027 160.06 242.51C158.6 241.006 156.614 240.178 154.465 240.178Z" fill="url(#paint8_linear_6_2564)"/>
<path d="M39.832 252.839L37.061 249.16L38.585 248.07L39.805 249.69L43.973 244.533L45.517 245.809L39.832 252.839Z" fill="#0E036C"/>
<path d="M17.89 285.311L17.844 273.065H5.11597L5.16296 285.311H17.89Z" fill="url(#paint9_linear_6_2564)"/>
<path d="M70.7509 287.635H26.3219L26.3069 285.244H70.7339L70.7509 287.635Z" fill="white"/>
<path d="M119.849 280.442H25.9098L25.8928 278.051H119.834L119.849 280.442Z" fill="url(#paint10_linear_6_2564)"/>
<path d="M100.549 273.248H25.1769L25.1619 270.858H100.535L100.549 273.248Z" fill="url(#paint11_linear_6_2564)"/>
<path d="M88.8029 287.635H75.3209L75.3049 285.244H88.7869L88.8029 287.635Z" fill="white"/>
<path d="M71.0119 309.915H54.3729L54.3059 308.153H70.9449L71.0119 309.915Z" fill="white"/>
<path d="M89.219 304.614H54.036L53.97 302.851H89.151L89.219 304.614Z" fill="url(#paint12_linear_6_2564)"/>
<path d="M77.772 309.915H72.724L72.657 308.153H77.707L77.772 309.915Z" fill="white"/>
<path d="M185.906 309.915H169.267L169.201 308.153H185.84L185.906 309.915Z" fill="white"/>
<path d="M204.112 304.614H168.93L168.865 302.851H204.046L204.112 304.614Z" fill="url(#paint13_linear_6_2564)"/>
<path d="M192.667 309.915H187.617L187.552 308.153H192.599L192.667 309.915Z" fill="white"/>
<path d="M172.364 287.635H127.937L127.922 285.244H172.349L172.364 287.635Z" fill="white"/>
<path d="M221.463 280.442H127.523L127.508 278.051H221.447L221.463 280.442Z" fill="url(#paint14_linear_6_2564)"/>
<path d="M202.165 273.248H126.792L126.775 270.858H202.148L202.165 273.248Z" fill="url(#paint15_linear_6_2564)"/>
<path d="M190.417 287.635H176.934L176.919 285.244H190.401L190.417 287.635Z" fill="white"/>
<path d="M23.7531 308.933H20.1581L19.6871 310.624H16.4551L20.1281 300.378H23.5801L27.6091 310.624H24.2951L23.7531 308.933ZM23.0561 306.718L21.8621 303.035L20.8061 306.718H23.0561Z" fill="#0E036C"/>
<path d="M131.459 300.378H137.384C138.373 300.378 139.135 300.623 139.671 301.113C140.209 301.601 140.484 302.207 140.496 302.929C140.508 303.534 140.327 304.055 139.957 304.488C139.711 304.777 139.348 305.006 138.865 305.174C139.605 305.351 140.151 305.654 140.506 306.085C140.86 306.517 141.045 307.058 141.055 307.709C141.065 308.241 140.949 308.719 140.709 309.143C140.471 309.567 140.139 309.903 139.713 310.15C139.451 310.303 139.053 310.415 138.518 310.485C137.807 310.578 137.334 310.625 137.103 310.625H131.637L131.459 300.378ZM134.721 304.398H136.1C136.592 304.398 136.934 304.313 137.125 304.143C137.315 303.973 137.407 303.727 137.402 303.406C137.396 303.107 137.296 302.875 137.099 302.706C136.903 302.539 136.565 302.456 136.084 302.456H134.688L134.721 304.398ZM134.791 308.423H136.406C136.951 308.423 137.334 308.326 137.554 308.133C137.774 307.94 137.881 307.679 137.875 307.354C137.87 307.051 137.755 306.807 137.53 306.624C137.305 306.441 136.916 306.349 136.362 306.349H134.755L134.791 308.423Z" fill="#0E036C"/>
<path d="M40.2139 315.584C37.5099 315.584 34.9939 314.528 33.1359 312.611C31.2639 310.681 30.2859 308.119 30.3819 305.4C30.5729 299.896 35.2079 295.419 40.7159 295.419C43.4169 295.419 45.9309 296.474 47.7899 298.391C49.6639 300.32 50.6439 302.881 50.5479 305.603C50.3549 311.107 45.7209 315.584 40.2139 315.584ZM40.8499 297.354C36.3039 297.354 32.4769 301.053 32.3179 305.603C32.2429 307.771 33.0109 309.8 34.4829 311.317C35.9429 312.822 37.9309 313.65 40.0779 313.65C44.6239 313.65 48.4519 309.951 48.6099 305.401C48.6849 303.233 47.9169 301.203 46.4429 299.686C44.9829 298.182 42.9959 297.354 40.8499 297.354Z" fill="url(#paint16_linear_6_2564)"/>
<path d="M153.404 315.295C150.701 315.295 148.188 314.24 146.327 312.323C144.455 310.394 143.474 307.832 143.57 305.112C143.761 299.609 148.396 295.131 153.904 295.131C156.608 295.131 159.121 296.186 160.98 298.103C162.853 300.033 163.834 302.594 163.739 305.315C163.547 310.819 158.911 315.295 153.404 315.295ZM154.039 297.066C149.494 297.066 145.666 300.765 145.507 305.315C145.432 307.483 146.201 309.512 147.675 311.029C149.134 312.534 151.12 313.362 153.27 313.362C157.815 313.362 161.643 309.661 161.801 305.113C161.877 302.945 161.108 300.916 159.634 299.398C158.174 297.894 156.187 297.066 154.039 297.066Z" fill="url(#paint17_linear_6_2564)"/>
<path d="M39.41 309.728L36.637 306.048L38.158 304.955L39.379 306.577L43.547 301.42L45.092 302.698L39.41 309.728Z" fill="#0E036C"/>
<path d="M17.466 342.198L17.419 329.952H4.68896L4.73597 342.198H17.466Z" fill="url(#paint18_linear_6_2564)"/>
<path d="M70.3241 344.523H25.8971L25.8821 342.132H70.3081L70.3241 344.523Z" fill="white"/>
<path d="M119.424 337.328H25.483L25.469 334.938H119.407L119.424 337.328Z" fill="url(#paint19_linear_6_2564)"/>
<path d="M100.124 330.136H24.7511L24.7361 327.745H100.108L100.124 330.136Z" fill="url(#paint20_linear_6_2564)"/>
<path d="M88.3772 344.523H74.8941L74.8792 342.132H88.3611L88.3772 344.523Z" fill="white"/>
<path d="M70.5869 366.803H53.9469L53.8809 365.04H70.5189L70.5869 366.803Z" fill="white"/>
<path d="M88.793 361.501H53.6109L53.5439 359.739H88.724L88.793 361.501Z" fill="url(#paint21_linear_6_2564)"/>
<path d="M77.3469 366.803H72.2979L72.2319 365.04H77.2799L77.3469 366.803Z" fill="white"/>
<path d="M185.479 366.803H168.842L168.775 365.04H185.414L185.479 366.803Z" fill="white"/>
<path d="M203.685 361.501H168.504L168.438 359.739H203.62L203.685 361.501Z" fill="url(#paint22_linear_6_2564)"/>
<path d="M192.241 366.803H187.191L187.125 365.04H192.175L192.241 366.803Z" fill="white"/>
<path d="M171.938 344.523H127.512L127.495 342.132H171.924L171.938 344.523Z" fill="white"/>
<path d="M221.038 337.328H127.097L127.083 334.938H221.022L221.038 337.328Z" fill="url(#paint23_linear_6_2564)"/>
<path d="M201.738 330.136H126.365L126.35 327.745H201.722L201.738 330.136Z" fill="url(#paint24_linear_6_2564)"/>
<path d="M189.991 344.523H176.509L176.494 342.132H189.974L189.991 344.523Z" fill="white"/>
<path d="M23.327 365.821H19.732L19.261 367.512H16.03L19.701 357.267H23.156L27.183 367.512H23.869L23.327 365.821ZM22.631 363.606L21.436 359.922L20.381 363.606H22.631Z" fill="#0E036C"/>
<path d="M131.032 357.267H136.958C137.946 357.267 138.708 357.511 139.246 358C139.783 358.489 140.058 359.095 140.07 359.816C140.081 360.422 139.902 360.943 139.531 361.375C139.285 361.665 138.921 361.893 138.439 362.061C139.178 362.239 139.724 362.541 140.081 362.973C140.435 363.405 140.618 363.946 140.63 364.598C140.639 365.129 140.525 365.606 140.284 366.031C140.044 366.455 139.713 366.79 139.289 367.038C139.025 367.191 138.626 367.303 138.092 367.373C137.381 367.467 136.909 367.513 136.676 367.513H131.21L131.032 357.267ZM134.296 361.285H135.673C136.167 361.285 136.51 361.199 136.699 361.029C136.888 360.859 136.981 360.613 136.975 360.293C136.97 359.994 136.87 359.762 136.673 359.593C136.477 359.426 136.138 359.342 135.659 359.342H134.261L134.296 361.285ZM134.366 365.311H135.979C136.525 365.311 136.908 365.213 137.127 365.02C137.348 364.827 137.455 364.568 137.449 364.241C137.443 363.939 137.329 363.695 137.104 363.512C136.88 363.327 136.491 363.237 135.936 363.237H134.329L134.366 365.311Z" fill="#0E036C"/>
<path d="M39.7869 372.471C37.0849 372.471 34.5719 371.416 32.7119 369.5C30.8389 367.57 29.8589 365.008 29.9549 362.288C30.1469 356.785 34.7819 352.307 40.2889 352.307C42.9939 352.307 45.5059 353.363 47.3649 355.278C49.2369 357.208 50.2169 359.769 50.1209 362.491C49.9289 367.994 45.2949 372.471 39.7869 372.471ZM40.4249 354.242C35.8779 354.242 32.0509 357.941 31.8929 362.491C31.8169 364.659 32.5849 366.688 34.0599 368.205C35.5199 369.71 37.5049 370.538 39.6519 370.538C44.1989 370.538 48.0259 366.837 48.1839 362.289C48.2599 360.12 47.4919 358.091 46.0179 356.573C44.5559 355.07 42.5719 354.242 40.4249 354.242Z" fill="url(#paint25_linear_6_2564)"/>
<path d="M152.977 372.184C150.274 372.184 147.759 371.127 145.9 369.211C144.028 367.28 143.05 364.72 143.145 361.999C143.336 356.496 147.972 352.018 153.48 352.018C156.181 352.018 158.694 353.075 160.553 354.991C162.427 356.921 163.407 359.481 163.312 362.202C163.12 367.705 158.484 372.184 152.977 372.184ZM153.615 353.953C149.069 353.953 145.242 357.652 145.083 362.201C145.008 364.369 145.776 366.398 147.248 367.916C148.709 369.42 150.695 370.249 152.843 370.249C157.388 370.249 161.216 366.548 161.374 361.999C161.449 359.831 160.681 357.803 159.207 356.285C157.748 354.782 155.763 353.953 153.615 353.953Z" fill="url(#paint26_linear_6_2564)"/>
<path d="M38.9829 366.616L36.2109 362.936L37.7319 361.843L38.9529 363.465L43.1199 358.307L44.6649 359.584L38.9829 366.616Z" fill="#0E036C"/>
<path d="M257.496 192.102H175.629V403.383H257.496V192.102Z" fill="url(#paint27_linear_6_2564)"/>
<path d="M183.058 264.915C182.308 264.915 181.701 265.523 181.701 266.273V282.113C181.701 282.863 182.308 283.471 183.058 283.471H250.068C250.817 283.471 251.424 282.863 251.424 282.113V266.273C251.424 265.523 250.817 264.915 250.068 264.915H183.058Z" fill="#0E036C"/>
<path d="M216.564 277.443C218.359 277.443 219.814 275.988 219.814 274.193C219.814 272.398 218.359 270.943 216.564 270.943C214.769 270.943 213.314 272.398 213.314 274.193C213.314 275.988 214.769 277.443 216.564 277.443Z" fill="#0E036C"/>
<path d="M183.058 287.193C182.308 287.193 181.701 287.801 181.701 288.551V304.391C181.701 305.141 182.308 305.749 183.058 305.749H250.068C250.817 305.749 251.424 305.141 251.424 304.391V288.551C251.424 287.801 250.817 287.193 250.068 287.193H183.058Z" fill="#0E036C"/>
<path d="M216.564 299.721C218.359 299.721 219.814 298.266 219.814 296.471C219.814 294.676 218.359 293.221 216.564 293.221C214.769 293.221 213.314 294.676 213.314 296.471C213.314 298.266 214.769 299.721 216.564 299.721Z" fill="#0E036C"/>
<path d="M183.058 309.471C182.308 309.471 181.701 310.078 181.701 310.828V326.669C181.701 327.418 182.308 328.026 183.058 328.026H250.068C250.817 328.026 251.424 327.418 251.424 326.669V310.828C251.424 310.078 250.817 309.471 250.068 309.471H183.058Z" fill="#0E036C"/>
<path d="M216.564 321.998C218.359 321.998 219.814 320.543 219.814 318.748C219.814 316.953 218.359 315.498 216.564 315.498C214.769 315.498 213.314 316.953 213.314 318.748C213.314 320.543 214.769 321.998 216.564 321.998Z" fill="#0E036C"/>
<path d="M182.97 338.749C182.22 338.749 181.613 339.355 181.613 340.105L181.792 389.468C181.792 390.218 182.398 390.826 183.148 390.826H250.159C250.906 390.826 251.513 390.218 251.513 389.468L251.336 340.105C251.336 339.355 250.729 338.749 249.98 338.749H182.97Z" fill="#0E036C"/>
<path d="M216.564 368.426C218.359 368.426 219.814 366.971 219.814 365.176C219.814 363.381 218.359 361.926 216.564 361.926C214.769 361.926 213.314 363.381 213.314 365.176C213.314 366.971 214.769 368.426 216.564 368.426Z" fill="#0E036C"/>
<path d="M284.181 192.102H256.981V403.383H284.181V192.102Z" fill="#0E036C"/>
<path d="M216.564 277.443C218.359 277.443 219.814 275.988 219.814 274.193C219.814 272.398 218.359 270.943 216.564 270.943C214.769 270.943 213.314 272.398 213.314 274.193C213.314 275.988 214.769 277.443 216.564 277.443Z" fill="#FFAD01"/>
<path d="M183.058 242.674C182.308 242.674 181.701 243.282 181.701 244.031V259.872C181.701 260.622 182.308 261.23 183.058 261.23H250.068C250.817 261.23 251.424 260.622 251.424 259.872V244.031C251.424 243.282 250.817 242.674 250.068 242.674H183.058Z" fill="#0E036C"/>
<path d="M216.564 255.202C218.359 255.202 219.814 253.747 219.814 251.952C219.814 250.157 218.359 248.702 216.564 248.702C214.769 248.702 213.314 250.157 213.314 251.952C213.314 253.747 214.769 255.202 216.564 255.202Z" fill="#0E036C"/>
<path d="M216.564 255.202C218.359 255.202 219.814 253.747 219.814 251.952C219.814 250.157 218.359 248.702 216.564 248.702C214.769 248.702 213.314 250.157 213.314 251.952C213.314 253.747 214.769 255.202 216.564 255.202Z" fill="#FFAD01"/>
<path d="M183.058 220.052C182.308 220.052 181.701 220.66 181.701 221.41V237.25C181.701 238 182.308 238.608 183.058 238.608H250.068C250.817 238.608 251.424 238 251.424 237.25V221.41C251.424 220.66 250.817 220.052 250.068 220.052H183.058Z" fill="#0E036C"/>
<path d="M216.564 232.58C218.359 232.58 219.814 231.125 219.814 229.33C219.814 227.535 218.359 226.08 216.564 226.08C214.769 226.08 213.314 227.535 213.314 229.33C213.314 231.125 214.769 232.58 216.564 232.58Z" fill="#0E036C"/>
<path d="M216.564 232.58C218.359 232.58 219.814 231.125 219.814 229.33C219.814 227.535 218.359 226.08 216.564 226.08C214.769 226.08 213.314 227.535 213.314 229.33C213.314 231.125 214.769 232.58 216.564 232.58Z" fill="#FFAD01"/>
<path d="M183.058 197.811C182.308 197.811 181.701 198.419 181.701 199.168V215.01C181.701 215.76 182.308 216.366 183.058 216.366H250.068C250.817 216.366 251.424 215.76 251.424 215.01V199.168C251.424 198.419 250.817 197.811 250.068 197.811H183.058Z" fill="#0E036C"/>
<path d="M216.564 210.339C218.359 210.339 219.814 208.884 219.814 207.089C219.814 205.294 218.359 203.839 216.564 203.839C214.769 203.839 213.314 205.294 213.314 207.089C213.314 208.884 214.769 210.339 216.564 210.339Z" fill="#0E036C"/>
<path d="M216.564 210.339C218.359 210.339 219.814 208.884 219.814 207.089C219.814 205.294 218.359 203.839 216.564 203.839C214.769 203.839 213.314 205.294 213.314 207.089C213.314 208.884 214.769 210.339 216.564 210.339Z" fill="#FFAD01"/>
<path d="M216.564 299.721C218.359 299.721 219.814 298.266 219.814 296.471C219.814 294.676 218.359 293.221 216.564 293.221C214.769 293.221 213.314 294.676 213.314 296.471C213.314 298.266 214.769 299.721 216.564 299.721Z" fill="#FFAD01"/>
<path d="M216.564 321.998C218.359 321.998 219.814 320.543 219.814 318.748C219.814 316.953 218.359 315.498 216.564 315.498C214.769 315.498 213.314 316.953 213.314 318.748C213.314 320.543 214.769 321.998 216.564 321.998Z" fill="#FFAD01"/>
<path d="M216.564 368.426C218.359 368.426 219.814 366.971 219.814 365.176C219.814 363.381 218.359 361.926 216.564 361.926C214.769 361.926 213.314 363.381 213.314 365.176C213.314 366.971 214.769 368.426 216.564 368.426Z" fill="#FFAD01"/>
<path d="M0 177.578V0L1.21899 0.0190125C24.647 0.381012 46.615 9.77401 63.075 26.467C79.554 43.18 88.631 65.313 88.631 88.789C88.631 112.265 79.555 134.398 63.075 151.111C46.615 167.804 24.646 177.197 1.21899 177.559L0 177.578ZM2.39999 2.44601V175.134C48.738 173.765 86.231 135.284 86.231 88.79C86.231 42.296 48.738 3.81501 2.39999 2.44601Z" fill="url(#paint28_linear_6_2564)"/>
<path d="M117.103 328.733L127.162 328.493V324.498L117.103 325.033V328.733Z" fill="#1B1E3D"/>
<path d="M127.162 328.493L180.309 340.566V336.201L127.162 324.498V328.493Z" fill="#0E036C"/>
<path d="M117.103 328.733L170.25 340.436L180.309 340.566L127.162 328.493L117.103 328.733Z" fill="#0E036C"/>
<path d="M125.498 330.249L117.103 403.383H120.966L138.896 332.216L131.332 330.125L125.498 330.249Z" fill="#0E036C"/>
<path d="M117.103 403.383H119.056L131.332 330.125L125.498 330.249L117.103 403.383Z" fill="#1B1E3D"/>
<path d="M168.446 338.026L162.637 338.152L180.628 403.383H184.476L176.73 340.015L168.446 338.026Z" fill="#0E036C"/>
<path d="M162.637 338.152L180.628 403.383H182.574L168.446 338.026L162.637 338.152Z" fill="#1B1E3D"/>
<path d="M189.115 376.487H114.818V381.102H189.115V376.487Z" fill="#0E036C"/>
<path d="M189.115 381.102L252.687 383.553V378.809L189.115 376.197V381.102Z" fill="#1B1E3D"/>
<path d="M258.388 289.061L258.39 289.059L248.723 284.026L203.713 288.387C200.022 288.387 196.875 291.065 196.283 294.706L185.232 354.816C184.489 359.393 188.024 363.547 192.661 363.547H243.903C247.571 363.547 250.706 360.901 251.321 357.284L262.692 297.176C263.287 293.684 261.385 290.423 258.388 289.061Z" fill="#1B1E3D"/>
<path d="M245.198 283.152H193.638C189.947 283.152 186.8 285.829 186.208 289.472L175.157 349.58C174.414 354.159 177.948 358.312 182.584 358.312H233.827C237.496 358.312 240.63 355.666 241.246 352.05L252.615 291.94C253.399 287.346 249.859 283.152 245.198 283.152Z" fill="#6967EC"/>
<path d="M240.341 285.991H193.244C189.873 285.991 186.998 288.435 186.459 291.763L176.156 347.499C175.477 351.681 178.706 355.475 182.941 355.475H229.747C233.099 355.475 235.962 353.059 236.524 349.754L247.118 294.019C247.833 289.821 244.598 285.991 240.341 285.991Z" fill="url(#paint29_linear_6_2564)"/>
<path d="M194.398 264.35C194.398 264.35 193.017 266.422 193.723 268.56C194.547 271.055 196.193 271.174 196.193 271.174L194.398 264.35Z" fill="#1B1E3D"/>
<path d="M198.232 333.369C178.644 325.863 135.954 322.749 137.884 333.859C139.223 341.563 152.512 343.987 169.197 348.068C183.094 351.468 187.896 353.923 195.767 352.984C207.824 351.548 208.048 337.129 198.232 333.369Z" fill="url(#paint30_linear_6_2564)"/>
<path d="M143.606 312.772C144.001 312.162 145.873 311.583 146.55 310.772C147.229 309.961 149.603 309.806 156.005 309.475C162.405 309.144 167.55 309.301 171.385 308.272C177.63 306.596 179.573 314.538 174.855 315.085C164.043 316.34 161.345 312.839 158.163 314.458C154.98 316.08 152.135 315.567 150.779 316.784C149.423 318.001 146.365 319.513 146.476 318.637C146.587 317.761 148.308 316.964 148.867 316.004C149.426 315.044 148.891 315.112 148.891 315.112C148.891 315.112 146.448 315.969 145.279 317.668C144.112 319.366 142.809 318.849 143.062 318.433C143.315 318.019 143.477 317.302 143.477 317.302C143.134 318.322 141.034 317.991 141.599 317.521C142.166 317.05 142.222 316.422 142.222 316.422C141.904 316.614 141.14 316.109 141.679 315.638C142.218 315.165 143.21 313.384 143.606 312.772Z" fill="white"/>
<path d="M204.826 285.636C208.001 284.036 210.52 283.364 212.796 285.061C236.918 303.05 216.317 350.282 216.317 350.282C196.559 344.905 190.079 333.648 184.512 329.482C184.01 322.509 197.325 289.419 204.826 285.636Z" fill="url(#paint31_linear_6_2564)"/>
<path d="M176.372 305.6C179.184 299.82 193.39 288.09 193.559 287.998C195.998 286.66 203.657 285.207 204.719 285.055C204.452 285.647 203.733 289.479 203.733 289.479C197.879 301.002 186.322 329.585 183.645 330.44C181.489 329.95 181.254 329.151 179.023 328.6L186.673 310.562C186.673 310.562 183.316 315.079 181.717 315.693C177.479 317.315 155.871 316.994 155.871 316.994C155.871 316.994 154.678 312.753 156.433 308.891C156.433 308.891 172.13 305.363 176.372 305.6Z" fill="#FFAD01"/>
<path d="M205.167 285.06C204.902 285.653 204.035 288.502 203.732 289.479C203.732 289.479 203.431 289.69 202.322 290.194C200.689 290.938 199.999 292.34 199.999 292.34C199.999 292.34 200.554 288.508 202.85 284.991C204.021 284.838 204.27 284.749 205.167 285.06Z" fill="#6967EC"/>
<path d="M213.678 282.724C216.511 286.678 204.222 295.199 203.732 289.202C203.645 288.137 204.62 286.139 203.117 285.249C201.616 284.359 211.804 276.89 211.804 276.89C211.804 276.89 211.881 280.217 213.678 282.724Z" fill="#FFB4A1"/>
<path d="M208.399 286.126C207.746 287.309 206.196 290.007 203.771 288.541C203.896 287.607 204.224 286.402 203.554 285.613C204.347 285.109 205.102 284.538 205.811 283.901C207.221 282.639 210.165 281.062 210.165 281.062C210.165 281.062 209.267 284.557 208.399 286.126Z" fill="#1B1E3D"/>
<path d="M209 337.093C189.661 331.138 150.805 325.289 151.105 335.844C151.322 343.49 161.554 350.599 178.589 353.731C192.977 356.376 194.74 357.118 203.204 355.612C216.056 353.325 218.91 340.146 209 337.093Z" fill="url(#paint32_linear_6_2564)"/>
<path d="M207.279 283.854C207.359 283.797 207.438 283.744 207.517 283.686C207.449 283.741 207.367 283.797 207.279 283.854Z" fill="#E38375"/>
<path d="M196.183 265.766C197.81 265.22 204.491 263.122 206.064 263.545C211.765 265.076 213.568 273.897 212.58 277.393C211.594 280.891 209.034 282.628 206.829 284.171C204.621 285.715 200.052 287.004 198.035 284.837C196.019 282.67 195.724 279.256 195.218 276.892C194.714 274.526 195.435 275 195.065 272.527C194.695 270.054 194.97 266.172 196.183 265.766Z" fill="#FFB4A1"/>
<path d="M196.465 274.788C196.378 275.112 196.065 275.311 195.766 275.232C195.467 275.152 195.293 274.824 195.38 274.498C195.467 274.174 195.707 274.337 196.006 274.416C196.305 274.496 196.551 274.462 196.465 274.788Z" fill="#1B1E3D"/>
<path d="M197.531 274.697C197.656 274.71 197.782 274.721 197.919 274.714C197.972 274.71 198.017 274.696 198.065 274.692C198.065 274.702 198.068 274.713 198.068 274.722C198.03 275.188 197.456 277.861 197.208 278.189C197.103 278.328 197.135 278.46 197.182 278.546C197.267 278.704 197.496 278.881 197.867 278.86H197.873C198.142 278.842 198.322 278.794 198.481 278.751C198.776 278.669 199.032 278.6 199.469 278.847C199.627 278.938 199.838 278.846 199.932 278.708C200.088 278.477 199.854 278.239 199.703 278.118L200.034 277.698C200.623 278.165 200.586 278.694 200.377 279.008C200.209 279.255 199.934 279.401 199.658 279.415C199.501 279.424 199.343 279.392 199.205 279.313C198.961 279.173 198.874 279.198 198.621 279.266C198.446 279.314 198.229 279.373 197.905 279.394H197.896C197.383 279.423 196.919 279.19 196.708 278.797C196.544 278.487 196.569 278.139 196.774 277.871C196.921 277.63 197.477 275.286 197.531 274.697Z" fill="#1B1E3D"/>
<path d="M199.284 281.957C199.43 281.907 199.58 281.891 199.727 281.906C199.874 281.92 200.021 281.97 200.154 282.052C200.285 282.137 200.408 282.257 200.482 282.442C200.301 282.534 200.164 282.566 200.029 282.594C199.898 282.617 199.776 282.621 199.652 282.609C199.53 282.595 199.408 282.564 199.282 282.511C199.155 282.454 199.026 282.386 198.877 282.254C198.997 282.094 199.141 282.014 199.284 281.957Z" fill="#1B1E3D"/>
<path d="M199.371 280.831C199.203 281.022 198.944 281.107 198.696 281.105C198.447 281.098 198.192 281.012 198.028 280.816C198.279 280.822 198.487 280.84 198.701 280.84C198.914 280.848 199.118 280.829 199.371 280.831Z" fill="#1B1E3D"/>
<path d="M201.919 280.706C202.001 280.676 202.084 280.643 202.153 280.598C202.188 280.577 202.22 280.554 202.248 280.53C202.272 280.513 202.306 280.467 202.294 280.478L202.604 280.65C202.54 280.741 202.499 280.76 202.444 280.797C202.394 280.83 202.343 280.855 202.292 280.876C202.189 280.919 202.087 280.942 201.985 280.963C201.784 281 201.583 281.005 201.385 281.002C200.99 280.988 200.609 280.924 200.232 280.843C200.616 280.866 201.003 280.869 201.378 280.825C201.563 280.8 201.748 280.766 201.919 280.706Z" fill="#1B1E3D"/>
<path d="M207.516 290.907C207.516 290.907 207.614 290.844 207.78 290.779C207.691 290.822 207.609 290.863 207.516 290.907Z" fill="url(#paint33_linear_6_2564)"/>
<path d="M207.516 290.907C217.382 286.38 213.185 281.933 213.044 281.793C226.743 288.171 228.006 308.98 228.185 311.73C229.623 334.047 216.358 354.82 216.358 354.82C208.458 356.941 197.034 347.015 188.102 335.858C192.033 327.618 200.874 306.777 204.796 299.304C207.722 293.728 207.516 290.907 207.516 290.907Z" fill="#FFAD01"/>
<path d="M222.277 300.296C228.197 302.914 223.463 328.66 212.623 332.926C200.471 337.707 195.933 328.651 197.536 324.452C199.931 318.177 217.897 298.358 222.277 300.296Z" fill="#1B1E3D"/>
<path d="M202.135 274.72C202.045 275.059 201.635 275.245 201.221 275.135C200.806 275.025 200.543 274.66 200.632 274.321C200.724 273.981 201.066 274.176 201.481 274.287C201.896 274.398 202.225 274.38 202.135 274.72Z" fill="#1B1E3D"/>
<path d="M202.709 257.861C209.734 254.131 217.334 262.238 216.834 267.729C216.25 274.17 213.954 276.383 213.207 280.12C211.019 280.485 210.88 277.225 210.88 277.225C211.008 275.503 212.806 269.458 208.484 270.102C206.799 270.353 208.766 274.682 208.278 275.27C207.788 275.858 206.443 275.763 206.443 275.763C207.289 274.241 205.256 269.029 205.256 269.029C205.256 269.029 197.785 269.46 194.848 267.11C191.909 264.76 194.73 262.032 194.73 262.032C197.403 257.358 202.709 257.861 202.709 257.861Z" fill="#1B1E3D"/>
<path d="M194.729 262.032C197.403 257.358 202.708 257.861 202.708 257.861C205.283 256.493 207.937 256.72 210.239 257.825C209.942 257.796 209.635 257.782 209.312 257.8C207.053 257.928 205.647 259.157 205.01 260.738C204.111 260.069 202.95 259.677 201.539 259.757C196.641 260.034 195.729 265.48 198.061 268.487C196.812 268.194 195.656 267.758 194.845 267.11C191.908 264.76 194.729 262.032 194.729 262.032Z" fill="#D3D2F2"/>
<path d="M200.93 339.963L169.446 328.876L167.708 336.242L200.93 339.963Z" fill="white"/>
<path d="M187.806 337.053L164.702 329.1L163.453 334.397L187.806 337.053Z" fill="#1B1E3D"/>
<path d="M169.51 338.596L169.885 307.085L133.885 294.735C133.179 294.751 132.621 295.334 132.635 296.039L133.233 326.279L169.51 338.596Z" fill="white"/>
<path d="M200.93 339.963L169.892 336.467L169.467 338.262C169.428 338.433 169.53 338.604 169.701 338.645L199.177 341.773C199.87 341.936 200.567 341.499 200.733 340.796L200.93 339.963Z" fill="#D3D2F2"/>
<path d="M169.85 338.673C170.198 338.666 170.474 338.377 170.466 338.028L169.788 307.062C169.091 307.078 168.539 307.654 168.555 308.351L169.205 338.056C169.214 338.405 169.502 338.681 169.85 338.673Z" fill="#D3D2F2"/>
<path d="M186.271 314.698C188.724 314.299 196.926 321.758 193.143 324.273C189.361 326.791 188.127 326.768 186.467 326.609C184.525 326.423 182.151 323.943 182.611 320.958C183.423 315.678 184.634 314.963 186.271 314.698Z" fill="#1B1E3D"/>
<path d="M165.531 315.482C165.002 315.09 161.117 313.162 162.484 313.086C163.851 313.01 166.978 314.345 166.978 314.345C168.971 314.257 172.263 314.714 172.263 314.714C169.874 313.509 162.882 312.247 165.046 311.828C167.212 311.411 169.407 312.049 169.407 312.049L175.131 312.48C172.337 311.876 169.049 309.799 170.939 309.779C172.826 309.759 176.567 310.27 178.173 311.827C179.778 313.383 178.626 313.884 181.193 314.997C183.76 316.11 190.308 315.318 190.308 315.318C196.548 318.562 190.914 323.839 190.914 323.839C190.914 323.839 187.845 322.094 181.563 322.023C174.199 321.936 169.705 320.118 168.114 319.657C166.52 319.196 163.077 317.042 164.57 317.207C166.063 317.373 169.577 318.13 169.577 318.13C168.461 317.565 163.253 316.544 162.763 316.232C161.559 315.465 165.531 315.482 165.531 315.482Z" fill="#FFB4A1"/>
<path d="M186.657 314.696L204.953 316.073C209.038 313.048 209.501 300.188 211.734 296.221C216.832 287.164 225.628 297.476 224.378 303.722C223.113 310.039 215.438 326.729 213.556 328.179C210.93 330.2 187.235 326.945 186.468 326.609C194.707 323.427 188.006 314.386 186.657 314.696Z" fill="#FFAD01"/>
<path d="M213.045 281.792C214.039 281.468 214.678 282.445 215.813 283.016C217.362 287.364 213.668 294.942 213.668 294.942C213.668 294.942 211.472 292.417 210.099 291.261C209.111 290.432 208.208 290.614 207.781 290.779C216.347 286.416 213.391 282.406 213.045 281.792Z" fill="#6967EC"/>
<path d="M203.538 273.391C200.988 272.147 200.226 272.417 200.22 272.423L199.559 271.427C199.873 271.186 200.937 270.785 204.066 272.313L203.538 273.391Z" fill="#2B3244"/>
<path d="M195.321 272.614L194.697 271.587C195.787 270.929 196.922 271.439 196.968 271.46L196.466 272.55L196.717 272.005L196.471 272.552C196.447 272.539 195.854 272.287 195.321 272.614Z" fill="#2B3244"/>
<path d="M112.647 352.771L109.863 368.564C109.316 371.895 111.443 376.425 114.818 376.487L191.671 376.536L195.944 348.132H118.111C115.399 348.131 113.088 350.095 112.647 352.771Z" fill="white"/>
<path d="M114.998 376.216L191.852 376.264L192.609 371.229H110.184C110.784 373.797 112.563 376.17 114.998 376.216Z" fill="#6967EC"/>
<path d="M243.774 359.327L197.586 348.431C192.916 347.126 188.163 350.231 187.482 355.033L185.691 369.346C185.168 373.039 187.944 376.379 191.671 376.537L250.879 379.1L248.108 365.036C248.107 362.375 246.336 360.041 243.774 359.327Z" fill="#1B1E3D"/>
<path d="M191.99 327.553L246.398 340.436L256.459 340.566L202.05 327.312L191.99 327.553Z" fill="#0E036C"/>
<path d="M242.501 336.377L236.538 336.506L255 403.383H258.949L250.234 338.532L242.501 336.377Z" fill="#0E036C"/>
<path d="M236.538 336.506L255 403.383H256.999L242.501 336.377L236.538 336.506Z" fill="#1B1E3D"/>
<path d="M197.697 328.62L189.115 403.383H193.064L211.394 330.629L203.66 328.493L197.697 328.62Z" fill="#0E036C"/>
<path d="M189.115 403.383H191.111L203.66 328.493L197.697 328.62L189.115 403.383Z" fill="#1B1E3D"/>
<path d="M202.05 327.312L256.459 340.566V336.201L202.05 323.318V327.312Z" fill="#0E036C"/>
<path d="M192.147 327.701L202.036 327.337L202.137 323.364L192.241 324.019L192.147 327.701Z" fill="#1B1E3D"/>
<path d="M135.567 382.887C132.084 385.38 126.832 391.393 124.474 394.085C124.474 394.085 118.509 390.331 117.756 384.147C117.756 384.147 122.904 379.026 126.918 373.205C130.933 367.386 138.216 380.989 135.567 382.887Z" fill="#FFB4A1"/>
<path d="M124.014 390.706C120.016 390.857 121.279 385.959 121.253 384.435C121.226 382.912 120.006 382.262 118.834 382.076C117.937 381.934 108.813 380.078 105.012 378.972C103.741 378.602 102.532 378.056 101.414 377.347L100.169 376.556C98.3558 375.407 96.9078 375.224 95.4768 376.819C95.4678 376.822 95.4598 376.826 95.4558 376.833C95.4558 376.833 95.4558 376.838 95.4558 376.842C95.4548 376.844 95.4528 376.845 95.4508 376.848L95.4568 376.854C95.4678 377.15 93.5558 383.121 107.169 392.06C110.33 394.135 113.222 393.127 114.799 394.263C114.799 394.263 118.346 397.227 120.087 398.701L120.985 399.498L126.494 393.245C126.768 392.934 126.947 392.539 126.936 392.125C126.919 391.445 126.415 390.617 124.014 390.706Z" fill="url(#paint34_linear_6_2564)"/>
<path d="M123.359 391.516C119.36 391.666 120.623 386.767 120.596 385.244C120.572 383.721 119.376 383.898 118.415 383.117C117.932 382.725 117.191 381.761 117.191 381.761C114.179 381.155 107.975 379.835 105.01 378.972C103.74 378.603 102.53 378.056 101.412 377.347L100.168 376.556C98.7468 375.654 97.5458 375.35 96.4028 376.034C96.4028 376.034 96.7638 377.893 98.7848 380.096C101.489 383.047 104.043 383.577 104.043 383.577C106.522 382.386 108.127 385.057 110.191 385.365C111.222 385.519 113.592 385.567 114.617 385.704C116.728 385.985 116.918 388.506 117.167 389.855L123.303 394.962C123.842 395.41 124.639 395.348 125.102 394.823L126.144 393.639C126.342 393.142 126.797 391.386 123.359 391.516Z" fill="url(#paint35_linear_6_2564)"/>
<path d="M115.978 381.518C112.752 380.855 107.444 379.705 104.77 378.928C104.156 378.748 103.554 378.528 102.972 378.267C102.972 378.278 102.974 378.289 102.974 378.301C103.16 380.054 104.394 381.518 106.089 381.994L113.497 384.078C114.854 384.459 116.168 383.352 116.021 381.951L115.978 381.518Z" fill="#0E036C"/>
<path d="M122.057 398.281C119.963 396.095 117.911 396.273 114.949 393.868C112.2 391.637 108.644 391.276 106.975 390.133C93.8489 381.133 95.4549 376.832 95.4549 376.832C94.8149 377.751 94.2289 379.302 94.9979 381.513C94.9979 381.513 95.2019 382.636 95.6729 382.646C95.6729 382.646 95.3229 382.947 95.7769 383.633C95.7769 383.633 96.2169 384.203 96.6889 383.949C96.6889 383.949 96.1749 384.647 97.0769 385.698C97.0769 385.698 98.4879 387.694 99.2519 387.145C99.2519 387.145 98.8659 387.948 99.7639 388.677C99.7639 388.677 101.356 390.448 101.947 389.918L102.219 389.713C102.219 389.713 101.922 390.604 102.978 391.399C102.978 391.399 105.117 393.022 105.786 392.394C105.786 392.394 107.686 393.459 108.037 394.01C108.037 394.01 108.362 395.444 110.246 396.921C110.246 396.921 110.984 397.519 111.517 396.993C111.517 396.993 111.259 397.901 112.625 398.903C112.625 398.903 114.167 400.474 115.114 399.701C115.114 399.701 114.866 400.829 115.425 401.283C116.474 402.136 118.325 403.512 119.555 401.763C120.171 400.888 121.101 400.976 122.057 398.281Z" fill="white"/>
<path d="M95.7668 383.619C95.7708 383.623 95.7718 383.627 95.7768 383.632C95.7768 383.632 95.7818 383.639 95.7908 383.65C95.8108 383.618 95.8238 383.599 95.8238 383.599C95.8048 383.608 95.7868 383.614 95.7668 383.619Z" fill="white"/>
<path d="M118.376 399.493L115.502 397.161C115.376 397.057 115.189 397.076 115.085 397.204L114.764 397.601C114.661 397.728 114.68 397.915 114.807 398.018L117.68 400.35C117.807 400.454 117.994 400.433 118.097 400.307L118.419 399.91C118.522 399.784 118.502 399.596 118.376 399.493Z" fill="#0E036C"/>
<path d="M115.08 380.727C115.083 380.401 114.822 380.134 114.496 380.13C114.17 380.128 113.904 380.389 113.9 380.715L113.88 382.887C113.877 383.075 113.962 383.241 114.098 383.351C114.198 383.432 114.326 383.481 114.463 383.483C114.789 383.486 115.056 383.224 115.059 382.899L115.08 380.727Z" fill="white"/>
<path d="M112.607 380.206C112.611 379.881 112.349 379.614 112.024 379.611C111.698 379.607 111.431 379.869 111.428 380.195L111.407 382.367C111.404 382.554 111.49 382.721 111.625 382.831C111.726 382.912 111.853 382.961 111.991 382.963C112.316 382.965 112.583 382.703 112.587 382.378L112.607 380.206Z" fill="white"/>
<path d="M110.137 379.686C110.14 379.362 109.877 379.094 109.552 379.091C109.226 379.088 108.959 379.35 108.956 379.676L108.935 381.847C108.933 382.035 109.019 382.202 109.154 382.311C109.254 382.392 109.382 382.442 109.519 382.443C109.845 382.446 110.113 382.185 110.116 381.859L110.137 379.686Z" fill="white"/>
<path d="M107.665 379.167C107.667 378.841 107.406 378.575 107.079 378.571C106.753 378.568 106.487 378.83 106.483 379.156L106.463 381.328C106.462 381.514 106.546 381.682 106.682 381.792C106.782 381.873 106.91 381.922 107.048 381.923C107.373 381.927 107.641 381.664 107.643 381.338L107.665 379.167Z" fill="white"/>
<path d="M149.7 336.314C149.7 336.314 124.425 374.089 120.754 380.745C120.754 380.745 124.3 388.874 132.814 389.715C132.814 389.715 161.969 358.725 163.671 351.043C165.365 343.39 149.7 336.314 149.7 336.314Z" fill="url(#paint36_linear_6_2564)"/>
<path d="M142.999 374.965C141.033 379.185 139.146 387.217 138.295 390.817C138.295 390.817 131.074 392.099 127.423 388.03C127.423 388.03 129.641 380.729 130.494 373.684C131.348 366.639 144.493 371.755 142.999 374.965Z" fill="#FFB4A1"/>
<path d="M135.731 388.639C132.888 391.457 130.502 386.996 129.452 385.893C128.401 384.789 127.064 385.135 126.075 385.793C125.318 386.297 117.345 391.106 113.8 392.863C112.615 393.452 111.353 393.869 110.051 394.102L108.599 394.365C106.489 394.744 105.297 395.591 105.324 397.732C105.319 397.742 105.317 397.75 105.318 397.758C105.318 397.758 105.322 397.76 105.324 397.764C105.324 397.766 105.324 397.769 105.324 397.772L105.331 397.771C105.541 397.983 108.176 403.671 124.245 401.036C127.977 400.425 129.423 397.725 131.352 397.494C131.352 397.494 135.968 397.274 138.251 397.181L139.451 397.16L139.272 388.828C139.263 388.414 139.126 388.002 138.838 387.704C138.367 387.218 137.435 386.948 135.731 388.639Z" fill="url(#paint37_linear_6_2564)"/>
<path d="M135.796 389.679C132.953 392.497 130.567 388.034 129.516 386.931C128.466 385.828 127.707 386.767 126.471 386.843C125.85 386.881 124.653 386.673 124.653 386.673C122.026 388.264 116.566 391.492 113.799 392.865C112.615 393.452 111.352 393.869 110.051 394.103L108.599 394.365C106.942 394.662 105.854 395.251 105.475 396.528C105.475 396.528 106.999 397.652 109.977 397.906C113.965 398.246 116.204 396.908 116.204 396.908C117.223 394.353 120.212 395.233 121.94 394.062C122.803 393.476 124.581 391.908 125.427 391.315C127.172 390.091 129.017 391.82 130.114 392.644L138.089 392.25C138.788 392.215 139.333 391.63 139.318 390.931L139.284 389.353C139.091 388.856 138.236 387.255 135.796 389.679Z" fill="url(#paint38_linear_6_2564)"/>
<path d="M123.736 387.233C120.914 388.928 116.228 391.674 113.732 392.914C113.16 393.198 112.568 393.441 111.961 393.645C111.97 393.652 111.979 393.66 111.987 393.668C113.308 394.832 115.208 395.074 116.78 394.277L123.643 390.795C124.899 390.158 125.118 388.454 124.06 387.522L123.736 387.233Z" fill="#0E036C"/>
<path d="M139.416 395.538C136.396 395.347 135.006 396.867 131.196 397.102C127.664 397.32 124.802 399.462 122.799 399.75C107.046 402.011 105.318 397.758 105.318 397.758C105.469 398.866 106.087 400.405 108.148 401.513C108.148 401.513 109.06 402.201 109.413 401.889C109.413 401.889 109.359 402.347 110.157 402.546C110.157 402.546 110.867 402.668 111.043 402.16C111.043 402.16 111.138 403.022 112.513 403.185C112.513 403.185 114.903 403.7 115.093 402.779C115.093 402.779 115.354 403.631 116.507 403.56C116.507 403.56 118.878 403.786 118.953 402.996L119.016 402.661C119.016 402.661 119.399 403.517 120.715 403.389C120.715 403.389 123.388 403.136 123.456 402.222C123.456 402.222 125.574 401.719 126.206 401.885C126.206 401.885 127.415 402.722 129.803 402.532C129.803 402.532 130.751 402.473 130.787 401.726C130.787 401.726 131.211 402.569 132.896 402.382C132.896 402.382 135.094 402.494 135.268 401.284C135.268 401.284 135.848 402.282 136.567 402.238C137.917 402.154 140.211 401.914 139.932 399.797C139.792 398.735 140.536 398.169 139.416 395.538Z" fill="white"/>
<path d="M110.14 402.542C110.146 402.543 110.151 402.546 110.156 402.547C110.156 402.547 110.166 402.548 110.178 402.551C110.169 402.514 110.167 402.49 110.167 402.49C110.161 402.51 110.15 402.526 110.14 402.542Z" fill="white"/>
<path d="M137.527 398.924L133.834 399.153C133.671 399.162 133.547 399.303 133.557 399.466L133.588 399.976C133.599 400.14 133.739 400.264 133.902 400.254L137.594 400.026C137.758 400.015 137.882 399.875 137.872 399.712L137.841 399.201C137.831 399.038 137.69 398.914 137.527 398.924Z" fill="#0E036C"/>
<path d="M122.397 387.341C122.179 387.1 121.806 387.08 121.564 387.299C121.322 387.517 121.302 387.889 121.521 388.132L122.976 389.744C123.101 389.883 123.279 389.948 123.452 389.937C123.58 389.929 123.707 389.878 123.81 389.786C124.052 389.568 124.071 389.195 123.853 388.953L122.397 387.341Z" fill="white"/>
<path d="M120.226 388.632C120.007 388.391 119.635 388.371 119.392 388.589C119.151 388.808 119.132 389.181 119.35 389.422L120.804 391.034C120.93 391.174 121.106 391.239 121.279 391.228C121.408 391.219 121.535 391.169 121.638 391.078C121.879 390.858 121.899 390.486 121.68 390.244L120.226 388.632Z" fill="white"/>
<path d="M118.055 389.922C117.837 389.681 117.464 389.662 117.223 389.88C116.981 390.098 116.96 390.471 117.178 390.713L118.634 392.326C118.759 392.464 118.936 392.529 119.11 392.519C119.238 392.51 119.366 392.461 119.467 392.368C119.709 392.15 119.729 391.777 119.51 391.535L118.055 389.922Z" fill="white"/>
<path d="M115.885 391.214C115.665 390.973 115.293 390.952 115.05 391.17C114.809 391.39 114.79 391.762 115.008 392.004L116.463 393.616C116.588 393.756 116.765 393.821 116.937 393.809C117.066 393.802 117.193 393.751 117.295 393.659C117.538 393.44 117.558 393.067 117.339 392.826L115.885 391.214Z" fill="white"/>
<path d="M138.097 331.785C134.184 346.025 128.505 376.35 127.546 383.89C127.546 383.89 133.84 390.138 142.064 387.781C142.064 387.781 157.736 348.223 156.487 340.455C155.24 332.719 139.441 326.892 138.097 331.785Z" fill="url(#paint39_linear_6_2564)"/>
<path d="M142.61 387.311L141.506 386.839C151.598 363.242 155.625 344.621 155.665 344.436L156.839 344.687C156.799 344.873 152.747 363.608 142.61 387.311Z" fill="#1B1E3D"/>
<defs>
<linearGradient id="paint0_linear_6_2564" x1="5.54082" y1="222.299" x2="18.3162" y2="222.299" gradientUnits="userSpaceOnUse">
<stop offset="5.4e-07" stop-color="#FFB504"/>
<stop offset="1" stop-color="#FF6501"/>
</linearGradient>
<linearGradient id="paint1_linear_6_2564" x1="26.3199" y1="222.359" x2="120.274" y2="222.359" gradientUnits="userSpaceOnUse">
<stop offset="5.4e-07" stop-color="#5451C2"/>
<stop offset="1" stop-color="#3F3AA1"/>
</linearGradient>
<linearGradient id="paint2_linear_6_2564" x1="25.5876" y1="215.165" x2="100.975" y2="215.165" gradientUnits="userSpaceOnUse">
<stop offset="5.4e-07" stop-color="#5451C2"/>
<stop offset="1" stop-color="#3F3AA1"/>
</linearGradient>
<linearGradient id="paint3_linear_6_2564" x1="54.3963" y1="246.844" x2="89.6434" y2="246.844" gradientUnits="userSpaceOnUse">
<stop offset="5.4e-07" stop-color="#5451C2"/>
<stop offset="1" stop-color="#3F3AA1"/>
</linearGradient>
<linearGradient id="paint4_linear_6_2564" x1="169.289" y1="246.844" x2="204.538" y2="246.844" gradientUnits="userSpaceOnUse">
<stop offset="5.4e-07" stop-color="#5451C2"/>
<stop offset="1" stop-color="#3F3AA1"/>
</linearGradient>
<linearGradient id="paint5_linear_6_2564" x1="127.933" y1="222.359" x2="221.889" y2="222.359" gradientUnits="userSpaceOnUse">
<stop offset="5.4e-07" stop-color="#5451C2"/>
<stop offset="1" stop-color="#3F3AA1"/>
</linearGradient>
<linearGradient id="paint6_linear_6_2564" x1="127.202" y1="215.165" x2="202.589" y2="215.165" gradientUnits="userSpaceOnUse">
<stop offset="5.4e-07" stop-color="#5451C2"/>
<stop offset="1" stop-color="#3F3AA1"/>
</linearGradient>
<linearGradient id="paint7_linear_6_2564" x1="30.7995" y1="248.615" x2="50.9812" y2="248.615" gradientUnits="userSpaceOnUse">
<stop offset="5.4e-07" stop-color="#FFB504"/>
<stop offset="1" stop-color="#FF6501"/>
</linearGradient>
<linearGradient id="paint8_linear_6_2564" x1="143.99" y1="248.327" x2="164.171" y2="248.327" gradientUnits="userSpaceOnUse">
<stop offset="5.4e-07" stop-color="#FFB504"/>
<stop offset="1" stop-color="#FF6501"/>
</linearGradient>
<linearGradient id="paint9_linear_6_2564" x1="5.11597" y1="279.188" x2="17.8904" y2="279.188" gradientUnits="userSpaceOnUse">
<stop offset="5.4e-07" stop-color="#FFB504"/>
<stop offset="1" stop-color="#FF6501"/>
</linearGradient>
<linearGradient id="paint10_linear_6_2564" x1="25.8932" y1="279.247" x2="119.849" y2="279.247" gradientUnits="userSpaceOnUse">
<stop offset="5.4e-07" stop-color="#5451C2"/>
<stop offset="1" stop-color="#3F3AA1"/>
</linearGradient>
<linearGradient id="paint11_linear_6_2564" x1="25.1618" y1="272.053" x2="100.548" y2="272.053" gradientUnits="userSpaceOnUse">
<stop offset="5.4e-07" stop-color="#5451C2"/>
<stop offset="1" stop-color="#3F3AA1"/>
</linearGradient>
<linearGradient id="paint12_linear_6_2564" x1="53.9695" y1="303.733" x2="89.2186" y2="303.733" gradientUnits="userSpaceOnUse">
<stop offset="5.4e-07" stop-color="#5451C2"/>
<stop offset="1" stop-color="#3F3AA1"/>
</linearGradient>
<linearGradient id="paint13_linear_6_2564" x1="168.865" y1="303.733" x2="204.112" y2="303.733" gradientUnits="userSpaceOnUse">
<stop offset="5.4e-07" stop-color="#5451C2"/>
<stop offset="1" stop-color="#3F3AA1"/>
</linearGradient>
<linearGradient id="paint14_linear_6_2564" x1="127.507" y1="279.247" x2="221.462" y2="279.247" gradientUnits="userSpaceOnUse">
<stop offset="5.4e-07" stop-color="#5451C2"/>
<stop offset="1" stop-color="#3F3AA1"/>
</linearGradient>
<linearGradient id="paint15_linear_6_2564" x1="126.775" y1="272.053" x2="202.165" y2="272.053" gradientUnits="userSpaceOnUse">
<stop offset="5.4e-07" stop-color="#5451C2"/>
<stop offset="1" stop-color="#3F3AA1"/>
</linearGradient>
<linearGradient id="paint16_linear_6_2564" x1="30.3747" y1="305.502" x2="50.5544" y2="305.502" gradientUnits="userSpaceOnUse">
<stop offset="5.4e-07" stop-color="#FFB504"/>
<stop offset="1" stop-color="#FF6501"/>
</linearGradient>
<linearGradient id="paint17_linear_6_2564" x1="143.563" y1="305.213" x2="163.745" y2="305.213" gradientUnits="userSpaceOnUse">
<stop offset="5.4e-07" stop-color="#FFB504"/>
<stop offset="1" stop-color="#FF6501"/>
</linearGradient>
<linearGradient id="paint18_linear_6_2564" x1="4.68926" y1="336.075" x2="17.4656" y2="336.075" gradientUnits="userSpaceOnUse">
<stop offset="5.4e-07" stop-color="#FFB504"/>
<stop offset="1" stop-color="#FF6501"/>
</linearGradient>
<linearGradient id="paint19_linear_6_2564" x1="25.4686" y1="336.133" x2="119.424" y2="336.133" gradientUnits="userSpaceOnUse">
<stop offset="5.4e-07" stop-color="#5451C2"/>
<stop offset="1" stop-color="#3F3AA1"/>
</linearGradient>
<linearGradient id="paint20_linear_6_2564" x1="24.7362" y1="328.941" x2="100.124" y2="328.941" gradientUnits="userSpaceOnUse">
<stop offset="5.4e-07" stop-color="#5451C2"/>
<stop offset="1" stop-color="#3F3AA1"/>
</linearGradient>
<linearGradient id="paint21_linear_6_2564" x1="53.5437" y1="360.62" x2="88.7928" y2="360.62" gradientUnits="userSpaceOnUse">
<stop offset="5.4e-07" stop-color="#5451C2"/>
<stop offset="1" stop-color="#3F3AA1"/>
</linearGradient>
<linearGradient id="paint22_linear_6_2564" x1="168.438" y1="360.62" x2="203.685" y2="360.62" gradientUnits="userSpaceOnUse">
<stop offset="5.4e-07" stop-color="#5451C2"/>
<stop offset="1" stop-color="#3F3AA1"/>
</linearGradient>
<linearGradient id="paint23_linear_6_2564" x1="127.083" y1="336.133" x2="221.038" y2="336.133" gradientUnits="userSpaceOnUse">
<stop offset="5.4e-07" stop-color="#5451C2"/>
<stop offset="1" stop-color="#3F3AA1"/>
</linearGradient>
<linearGradient id="paint24_linear_6_2564" x1="126.35" y1="328.941" x2="201.738" y2="328.941" gradientUnits="userSpaceOnUse">
<stop offset="5.4e-07" stop-color="#5451C2"/>
<stop offset="1" stop-color="#3F3AA1"/>
</linearGradient>
<linearGradient id="paint25_linear_6_2564" x1="29.948" y1="362.389" x2="50.1277" y2="362.389" gradientUnits="userSpaceOnUse">
<stop offset="5.4e-07" stop-color="#FFB504"/>
<stop offset="1" stop-color="#FF6501"/>
</linearGradient>
<linearGradient id="paint26_linear_6_2564" x1="143.139" y1="362.101" x2="163.318" y2="362.101" gradientUnits="userSpaceOnUse">
<stop offset="5.4e-07" stop-color="#FFB504"/>
<stop offset="1" stop-color="#FF6501"/>
</linearGradient>
<linearGradient id="paint27_linear_6_2564" x1="175.629" y1="297.743" x2="257.496" y2="297.743" gradientUnits="userSpaceOnUse">
<stop offset="5.4e-07" stop-color="#5451C2"/>
<stop offset="1" stop-color="#3F3AA1"/>
</linearGradient>
<linearGradient id="paint28_linear_6_2564" x1="-0.0002" y1="88.7894" x2="88.6307" y2="88.7894" gradientUnits="userSpaceOnUse">
<stop offset="5.4e-07" stop-color="#FFB504"/>
<stop offset="1" stop-color="#FF6501"/>
</linearGradient>
<linearGradient id="paint29_linear_6_2564" x1="176.065" y1="320.733" x2="247.218" y2="320.733" gradientUnits="userSpaceOnUse">
<stop offset="5.4e-07" stop-color="#5451C2"/>
<stop offset="1" stop-color="#3F3AA1"/>
</linearGradient>
<linearGradient id="paint30_linear_6_2564" x1="137.821" y1="339.893" x2="205.233" y2="339.893" gradientUnits="userSpaceOnUse">
<stop offset="5.4e-07" stop-color="#5451C2"/>
<stop offset="1" stop-color="#3F3AA1"/>
</linearGradient>
<linearGradient id="paint31_linear_6_2564" x1="224.799" y1="316.508" x2="183.909" y2="318.818" gradientUnits="userSpaceOnUse">
<stop offset="5.4e-07" stop-color="#FFB504"/>
<stop offset="1" stop-color="#FF6501"/>
</linearGradient>
<linearGradient id="paint32_linear_6_2564" x1="188.534" y1="342.327" x2="178.73" y2="343.349" gradientUnits="userSpaceOnUse">
<stop offset="5.4e-07" stop-color="#5451C2"/>
<stop offset="1" stop-color="#3F3AA1"/>
</linearGradient>
<linearGradient id="paint33_linear_6_2564" x1="207.62" y1="290.929" x2="207.676" y2="290.76" gradientUnits="userSpaceOnUse">
<stop offset="5.4e-07" stop-color="#BADDFF"/>
<stop offset="1" stop-color="white"/>
</linearGradient>
<linearGradient id="paint34_linear_6_2564" x1="126.625" y1="386.599" x2="95.955" y2="388.331" gradientUnits="userSpaceOnUse">
<stop offset="5.4e-07" stop-color="#FFB504"/>
<stop offset="1" stop-color="#FF6501"/>
</linearGradient>
<linearGradient id="paint35_linear_6_2564" x1="125.81" y1="384.618" x2="96.9822" y2="386.247" gradientUnits="userSpaceOnUse">
<stop offset="5.4e-07" stop-color="#5451C2"/>
<stop offset="1" stop-color="#3F3AA1"/>
</linearGradient>
<linearGradient id="paint36_linear_6_2564" x1="120.754" y1="363.014" x2="163.798" y2="363.014" gradientUnits="userSpaceOnUse">
<stop offset="5.4e-07" stop-color="#5451C2"/>
<stop offset="1" stop-color="#3F3AA1"/>
</linearGradient>
<linearGradient id="paint37_linear_6_2564" x1="139.481" y1="392.507" x2="105.13" y2="394.447" gradientUnits="userSpaceOnUse">
<stop offset="5.4e-07" stop-color="#FFB504"/>
<stop offset="1" stop-color="#FF6501"/>
</linearGradient>
<linearGradient id="paint38_linear_6_2564" x1="139.381" y1="391.087" x2="105.276" y2="393.013" gradientUnits="userSpaceOnUse">
<stop offset="5.4e-07" stop-color="#5451C2"/>
<stop offset="1" stop-color="#3F3AA1"/>
</linearGradient>
<linearGradient id="paint39_linear_6_2564" x1="127.547" y1="359.151" x2="156.558" y2="359.151" gradientUnits="userSpaceOnUse">
<stop offset="5.4e-07" stop-color="#5451C2"/>
<stop offset="1" stop-color="#3F3AA1"/>
</linearGradient>
</defs>
</svg>
