<svg width="55" height="91" viewBox="0 0 55 91" fill="none" xmlns="http://www.w3.org/2000/svg">
<path d="M0.888916 35.3789C0.888916 35.3789 1.41791 53.0589 17.1119 63.3889H27.0109C27.0109 63.3889 23.1379 37.9609 0.888916 35.3789Z" fill="#0E036C"/>
<path d="M20.5029 63.3889H30.4019C30.4019 63.3889 33.6869 36.6669 21.2979 16.4099C21.2979 16.4099 9.85793 46.0629 20.5029 63.3889Z" fill="#D3D2F2"/>
<path d="M29.9869 63.3889H39.8859C53.4899 33.6789 44.4189 1.00684 44.4189 1.00684C24.7319 23.0328 29.9869 63.3889 29.9869 63.3889Z" fill="#D3D2F2"/>
<path d="M39.0449 63.3889H44.9649C54.3509 57.2099 54.6679 46.6349 54.6679 46.6349C41.3609 48.1799 39.0449 63.3889 39.0449 63.3889Z" fill="#0E036C"/>
<path d="M11.678 63.3889C8.70705 72.1679 8.46805 81.6229 10.467 90.5899H53.3651C55.3661 81.6229 55.126 72.1679 52.155 63.3889H11.678Z" fill="#FFAC03"/>
<path d="M35.344 64.143C37.459 72.808 37.611 81.69 37.032 90.59H42.027C42.581 81.673 41.688 72.625 39.965 64.137L35.344 64.143Z" fill="#FFFFFE"/>
<path d="M30.042 62.4639C23.789 21.2779 43.793 0.783909 43.994 0.581909L44.843 1.43188C44.644 1.63088 25.072 21.7359 31.229 62.2839L30.042 62.4639Z" fill="#0E036C"/>
<path d="M28.8269 39.0579C26.5889 25.1579 20.8649 16.8359 20.8069 16.7519L21.7899 16.0649C22.0309 16.4099 27.7249 24.6749 30.0109 38.8679L28.8269 39.0579Z" fill="#0E036C"/>
<path d="M9.89596 90.7669C6.10596 78.4979 10.9039 63.8179 11.1089 63.1989L11.2459 62.7889H52.1559V63.9889H12.12C11.37 66.4659 7.71195 79.6299 11.042 90.4139L9.89596 90.7669Z" fill="#0E036C"/>
</svg>
